<svg width="18" height="21" viewBox="0 0 18 21" fill="none" xmlns="http://www.w3.org/2000/svg">
<path fill-rule="evenodd" clip-rule="evenodd" d="M9.03135 4.95977C8.85835 2.35379 11.0049 0.21016 13.474 0C13.8136 3.00529 10.6974 5.254 9.03135 4.95977ZM11.3381 20.5662C12.5556 21.0874 13.8329 21.2598 14.9905 20.1543L14.9884 20.169C16.4493 18.8871 17.3208 17.1533 18 15.3984C14.6061 14.0534 13.7303 9.26175 17.4254 7.07608C16.5284 5.82143 15.1849 5.1237 13.3886 4.98079C12.4329 4.91362 11.5417 5.21657 10.6582 5.51691C10.1596 5.68642 9.66346 5.85509 9.15951 5.95593C8.7577 5.92808 8.32348 5.76884 7.83333 5.58908C7.17705 5.3484 6.42048 5.07094 5.50712 5.02282C-1.07145 5.35908 -1.92581 14.2909 3.86248 20.1543C4.88771 21.079 5.79119 21.2892 7.49351 20.5662C8.86048 20.0009 10.0438 20.0345 11.3381 20.5662Z" fill="white"/>
</svg>
