<svg width="68" height="25" viewBox="0 0 68 25" fill="none" xmlns="http://www.w3.org/2000/svg">
<rect x="0.5" y="0.5" width="66.252" height="23.6504" rx="11.8252" stroke="white" stroke-opacity="0.36"/>
<rect x="4" y="4" width="16.6504" height="16.6504" rx="8.3252" fill="#1AC057"/>
<ellipse cx="12.3252" cy="12.3253" rx="7.42412" ry="7.42415" fill="white"/>
<path fill-rule="evenodd" clip-rule="evenodd" d="M4 12.3252C4 7.72732 7.72731 4 12.3252 4H12.3735C14.5751 4.00641 16.684 4.88712 18.2362 6.44841C19.7884 8.00969 20.6568 10.1236 20.6503 12.3252C20.6503 16.9231 16.923 20.6504 12.3252 20.6504C7.72731 20.6504 4 16.9231 4 12.3252ZM11.5995 15.5303L12.4663 12.6074L13.8168 12.2244L14.0991 11.2568L12.7686 11.66L14.1797 6.86242V6.78582C14.1776 6.72379 14.1509 6.66514 14.1055 6.62279C14.0602 6.58045 13.9998 6.55787 13.9378 6.56005H12.1437C12.004 6.55574 11.8793 6.6472 11.8414 6.78179L10.1683 12.4663L8.83787 12.8695L8.5355 13.7967L9.86592 13.3936L8.67661 17.4453H15.7722C15.9124 17.4511 16.0379 17.359 16.0745 17.2236L16.4777 15.8327V15.7561C16.4756 15.694 16.4489 15.6354 16.4035 15.5931C16.3582 15.5507 16.2978 15.5281 16.2358 15.5303H11.5995Z" fill="#345D9D"/>
<rect x="14.6504" y="4" width="16.6504" height="16.6504" rx="8.3252" fill="#1AC057"/>
<circle cx="22.9756" cy="12.3252" r="8.3252" fill="#0AC18E"/>
<path fill-rule="evenodd" clip-rule="evenodd" d="M25.5726 9.52965C25.1542 8.58091 24.1928 8.37806 23.0159 8.57457L22.6376 7.10815L21.7459 7.33847L22.1178 8.80066C22.0325 8.82219 21.9463 8.84259 21.8597 8.8631L21.8597 8.8631C21.7083 8.89897 21.5555 8.93514 21.4036 8.97816L21.0317 7.52441L20.1401 7.75473L20.5183 9.22115C20.326 9.27609 18.718 9.68812 18.718 9.68812L18.9631 10.6432C18.9631 10.6432 19.6182 10.4594 19.6118 10.4742C19.9753 10.3791 20.1464 10.5608 20.2267 10.7319L21.2663 14.7509C21.279 14.8671 21.2578 15.0657 21.0085 15.1333C21.0233 15.1418 20.3598 15.3002 20.3598 15.3002L20.457 16.4138C20.457 16.4138 22.0502 16.006 22.2594 15.9532L22.6419 17.4365L23.5335 17.2062L23.1511 15.7123C23.3962 15.6552 23.635 15.5961 23.8674 15.5348L24.2477 17.0202L25.1394 16.7899L24.757 15.3087C26.1304 14.9748 27.1003 14.1085 26.9017 12.7837C26.7749 11.9849 25.9022 11.3299 25.1774 11.256C25.6233 10.8608 25.8494 10.284 25.5726 9.52965ZM25.1436 13.0267C25.2967 14.1582 23.9617 14.4334 23.2051 14.5893L23.205 14.5893C23.0843 14.6142 22.9783 14.6361 22.8954 14.6579L22.3714 12.6949C22.4295 12.6797 22.4994 12.6597 22.5784 12.6371L22.5785 12.6371C23.3208 12.4252 24.8725 11.9821 25.1436 13.0267ZM22.415 11.7312C23.0504 11.6025 24.2084 11.3681 24.0449 10.3537C23.7105 9.40964 22.549 9.75302 21.9249 9.93754C21.8352 9.96406 21.7566 9.98729 21.6931 10.003L22.1707 11.7842C22.2362 11.7674 22.3197 11.7505 22.415 11.7312Z" fill="white"/>
<rect x="25.3008" y="4" width="16.6504" height="16.6504" rx="8.3252" fill="#6B8CEF"/>
<path fill-rule="evenodd" clip-rule="evenodd" d="M33.6268 4V10.155L29.0739 12.1902L33.6268 10.1562V15.5001L28.4265 12.4796L28.4263 12.4796L28.4264 12.4795L28.4263 12.4795L28.4264 12.4794L33.6268 4ZM33.6282 4L38.8292 12.4794L38.8294 12.4795L38.8293 12.4795L38.8294 12.4796L38.8292 12.4796L33.6282 15.5001V10.1562L38.1817 12.1902L33.6282 10.155V4ZM33.6268 16.4682V20.6504L28.4229 13.4483L33.6268 16.4682ZM33.6282 20.6504V16.4675L38.8294 13.4483L33.6282 20.6504Z" fill="white"/>
<rect x="35.9512" y="4" width="16.6504" height="16.6504" rx="8.3252" fill="#50AF95"/>
<path fill-rule="evenodd" clip-rule="evenodd" d="Mnan nanL38.9997 5.11191L35.9637 11.4891C35.9399 11.5378 35.9507 11.5963 35.9901 11.6334L44.1898 19.4906C44.2382 19.537 44.3146 19.537 44.363 19.4906L52.5626 11.6339C52.6021 11.5968 52.6128 11.5383 52.5891 11.4896L49.553 5.1124C49.533 5.06866 49.4893 5.04065 49.4412 5.04078H39.1125C39.0642 5.04018 39.02 5.06804 38.9997 5.11191Lnan nanZ" fill="#50AF95"/>
<path fill-rule="evenodd" clip-rule="evenodd" d="M45.3299 12.1441C45.2711 12.1486 44.9669 12.1667 44.2885 12.1667C43.7489 12.1667 43.3657 12.1505 43.2313 12.1441C41.146 12.0524 39.5894 11.6894 39.5894 11.2548C39.5894 10.8201 41.146 10.4576 43.2313 10.3644V11.7826C43.3677 11.7924 43.7582 11.8155 44.2978 11.8155C44.9453 11.8155 45.2696 11.7885 45.328 11.7831V10.3654C47.4089 10.4581 48.962 10.8211 48.962 11.2548C48.962 11.6884 47.4094 12.0514 45.328 12.1437L45.3299 12.1441ZM45.3299 10.2187V8.94965H48.234V7.0144H40.3272V8.94965H43.2308V10.2182C40.8708 10.3266 39.0959 10.7941 39.0959 11.3544C39.0959 11.9146 40.8708 12.3816 43.2308 12.4905V16.5572H45.3294V12.489C47.6841 12.3806 49.456 11.9136 49.456 11.3539C49.456 10.7941 47.6856 10.3271 45.3294 10.2182L45.3299 10.2187Z" fill="white"/>
<rect x="46.6016" y="4" width="16.6504" height="16.6504" rx="8.3252" fill="#1AC057"/>
<path d="M63.0028 14.3393C61.8907 18.7992 57.373 21.5135 52.9121 20.4013C48.4529 19.2894 45.7384 14.7719 46.8509 10.3122C47.9625 5.85173 52.4802 3.1372 56.9398 4.24913C61.4005 5.36107 64.1148 9.87905 63.0028 14.3393Z" fill="#F7931A"/>
<path fill-rule="evenodd" clip-rule="evenodd" d="M58.5964 11.1392C58.7621 10.0314 57.9187 9.4359 56.7654 9.03864L57.1395 7.53802L56.2261 7.31037L55.8618 8.77145C55.6217 8.71161 55.3751 8.65516 55.13 8.59922L55.4968 7.12852L54.5839 6.90088L54.2095 8.40098C54.0108 8.35571 53.8156 8.31096 53.6262 8.26387L53.6273 8.25919L52.3676 7.94465L52.1246 8.92026C52.1246 8.92026 52.8023 9.07558 52.788 9.0852C53.158 9.17756 53.2248 9.42237 53.2136 9.61646L52.7875 11.326C52.813 11.3325 52.846 11.3419 52.8824 11.3564L52.8515 11.3487L52.8513 11.3487C52.8302 11.3434 52.8083 11.3379 52.7859 11.3325L52.1886 13.7273C52.1433 13.8397 52.0286 14.0083 51.77 13.9443C51.7791 13.9575 51.1061 13.7785 51.1061 13.7785L50.6526 14.8241L51.8413 15.1205C51.974 15.1537 52.1052 15.1879 52.235 15.2218C52.3214 15.2443 52.4072 15.2667 52.4925 15.2885L52.1144 16.8063L53.0268 17.034L53.4012 15.5323C53.6504 15.5999 53.8924 15.6624 54.1291 15.7212L53.7561 17.2158L54.6695 17.4434L55.0475 15.9285C56.6051 16.2233 57.7764 16.1044 58.2694 14.6956C58.6666 13.5613 58.2496 12.907 57.4301 12.4803C58.0269 12.3427 58.4765 11.9501 58.5964 11.1392ZM56.5094 14.0658C56.2504 15.1064 54.6215 14.6762 53.8761 14.4793C53.8091 14.4616 53.7492 14.4458 53.6981 14.4331L54.1996 12.4223C54.2619 12.4378 54.3379 12.4549 54.4241 12.4742C55.1949 12.6472 56.7747 13.0017 56.5094 14.0658ZM54.5789 11.5411C55.2004 11.7069 56.5558 12.0686 56.7919 11.1228C57.033 10.1553 55.7156 9.86369 55.0722 9.72126C54.9999 9.70524 54.936 9.69111 54.8839 9.67811L54.4291 11.5019C54.4721 11.5126 54.5225 11.526 54.5789 11.5411Z" fill="white"/>
</svg>
