<svg width="122" height="175" viewBox="0 0 122 175" fill="none" xmlns="http://www.w3.org/2000/svg">
<g clip-path="url(#clip0_1_34880)">
<path d="M103.725 37.9421C103.576 37.2639 103.197 36.6587 102.651 36.2303C101.31 35.3854 99.7289 35.0071 98.1518 35.1537C97.2092 33.2712 96.585 31.2447 96.3047 29.1571C97.0654 29.1695 97.8126 28.9559 98.4525 28.5434L98.7961 28.4465C100.31 27.7468 100.461 25.4751 99.5049 24.1402C98.4104 22.8714 96.9753 21.9446 95.3705 21.4702C96.5088 21.5456 97.5182 22.2992 98.5921 22.6437C99.666 22.9882 101.223 22.6437 101.352 21.4702C101.371 21.1032 101.312 20.7364 101.18 20.3936L100.536 18.3804C100.432 17.8151 100.117 17.3108 99.6552 16.97C99.2652 16.8115 98.8579 16.6995 98.4417 16.6363C97.1638 16.2918 96.5088 14.7415 95.2201 14.3862C94.2479 14.2815 93.265 14.426 92.3636 14.8061C91.4186 15.0321 90.1622 14.8061 89.8723 13.9125C91.1454 13.2624 92.2488 12.3222 93.0939 11.1672C93.5006 10.5761 93.6917 9.86264 93.635 9.14686C93.5782 8.43109 93.2772 7.75679 92.7824 7.23758C91.8275 6.62422 90.6801 6.38649 89.5608 6.5701C88.3151 6.63469 86.758 6.9146 86.4358 8.12039C86.0063 8.00799 85.5583 7.9858 85.1199 8.0552C84.6814 8.12459 84.2619 8.28408 83.8879 8.52365C83.5138 8.76323 83.1931 9.07772 82.946 9.4474C82.6989 9.81708 82.5306 10.234 82.4518 10.6719L79.2302 10.349C80.1322 9.38001 81.3779 8.78788 82.1833 7.72205C82.9887 6.65622 82.8169 4.72911 81.5282 4.49226C81.0457 4.49297 80.564 4.44973 80.0893 4.36307C79.7671 4.24464 79.4986 3.94319 79.155 3.93243C78.899 3.95074 78.655 4.04858 78.457 4.21235L71.6808 8.64793C72.2822 7.21605 72.8943 5.79495 73.5064 4.34154C74.1185 2.88813 74.5159 1.20864 73.3346 0.401191C72.1534 -0.406256 70.5425 0.745706 70.3063 2.11298C69.9937 2.04199 69.6694 2.04028 69.3561 2.10798C69.0428 2.17568 68.748 2.31115 68.4923 2.50493C68.2366 2.69871 68.0262 2.94612 67.8758 3.22987C67.7255 3.51362 67.6387 3.82688 67.6216 4.14775C67.1683 3.96039 66.6661 3.92776 66.1924 4.05492C65.7188 4.18208 65.3001 4.46194 65.0008 4.85134C64.7016 5.24074 64.5384 5.71804 64.5366 6.2096C64.5347 6.70116 64.6943 7.17968 64.9906 7.57133C63.8503 7.59419 62.7373 7.92523 61.769 8.5295C61.7351 8.18038 61.6079 7.8469 61.4008 7.56423C61.1936 7.28157 60.9142 7.06021 60.5919 6.9235C60.2697 6.78679 59.9167 6.73981 59.5701 6.78751C59.2235 6.83521 58.8961 6.97583 58.6225 7.19452C58.6548 6.51018 58.4828 5.83173 58.1286 5.24588C58.0331 5.1088 57.9096 4.99374 57.7662 4.90841C57.6228 4.82308 57.4629 4.76944 57.2972 4.7511C57.1314 4.73275 56.9637 4.75011 56.8052 4.80202C56.6467 4.85393 56.5011 4.93919 56.3782 5.05209C56.4765 4.58804 56.4282 4.10481 56.2399 3.66957C56.0516 3.23433 55.7327 2.86873 55.3276 2.62361C54.9224 2.37849 54.4512 2.26602 53.9793 2.30185C53.5075 2.33768 53.0585 2.52003 52.6948 2.82353L51.6209 1.46703C51.0441 1.41148 50.4636 1.52418 49.9492 1.79157C49.4349 2.05897 49.0085 2.46966 48.7214 2.97426C48.2489 4.05085 49.0436 5.53656 50.1819 5.43966C49.3872 5.43966 49.5591 6.71005 50.0316 7.36677L51.9967 10.1013C51.5836 9.71226 51.0524 9.47325 50.4878 9.42251C49.9233 9.37177 49.3581 9.51222 48.8825 9.82141C48.7002 9.63191 48.4817 9.48119 48.24 9.37824C47.9983 9.27529 47.7383 9.22223 47.4757 9.22223C47.2131 9.22223 46.9532 9.27529 46.7115 9.37824C46.4698 9.48119 46.2513 9.63191 46.069 9.82141C45.9008 9.56841 45.6631 9.36973 45.3846 9.24945C45.106 9.12916 44.7987 9.09243 44.4998 9.1437C44.2009 9.19498 43.9232 9.33206 43.7005 9.53833C43.4777 9.74461 43.3194 10.0112 43.2447 10.3059C43.0406 9.77835 42.3211 9.74606 41.7627 9.81065C40.9489 9.8087 40.1583 10.0818 39.5183 10.5858C38.9492 11.1456 38.9492 12.3299 39.7009 12.6098C39.0136 12.2222 38.1331 12.9758 38.1223 13.7725C38.1531 14.1612 38.2645 14.5391 38.4494 14.8821C38.6343 15.2251 38.8887 15.5255 39.1962 15.7642C39.8331 16.2311 40.3791 16.8114 40.807 17.476C40.1339 17.0477 39.3299 16.8758 38.5411 16.9916C37.1268 16.9295 35.7188 17.2141 34.4389 17.8205C34.2027 17.2607 33.4188 17.2392 32.8281 17.3576C30.9697 17.7461 29.2666 18.6747 27.9313 20.0276C27.3084 20.6627 26.75 21.6209 27.1795 22.3961C27.4017 22.7422 27.7135 23.0213 28.0816 23.2035L32.4308 25.9058C30.0521 26.6516 27.9698 28.1326 26.4815 30.1368C25.6117 30.6428 24.5056 30.6966 23.7109 31.3211C22.9163 31.9455 22.9807 33.6142 23.9901 33.6142C23.7586 33.7854 23.5731 34.0115 23.4501 34.2722C23.3271 34.5329 23.2705 34.8201 23.2854 35.1082C23.3003 35.3962 23.3862 35.676 23.5354 35.9226C23.6847 36.1691 23.8925 36.3748 24.1405 36.521C24.2742 36.7201 24.433 36.901 24.613 37.0593C24.9594 37.3385 25.3571 37.547 25.7835 37.673C26.0092 37.9714 26.3044 38.2098 26.6432 38.3675C26.982 38.5251 27.3542 38.5971 27.7272 38.5773C26.9017 39.268 26.2038 40.0989 25.6654 41.032C25.3016 41.6363 25.1094 42.3286 25.1094 43.0344C25.1094 43.7402 25.3016 44.4326 25.6654 45.0369C25.6654 45.1015 25.7728 45.1553 25.8157 45.2092C25.8677 45.4561 25.9686 45.6902 26.1125 45.8973C26.2563 46.1044 26.4403 46.2805 26.6534 46.4149C26.4789 46.745 26.4257 47.1261 26.503 47.4915C25.7906 47.7757 25.167 48.2458 24.697 48.8531C24.227 49.4604 23.9277 50.1827 23.8302 50.9451C23.7327 51.7076 23.8405 52.4822 24.1424 53.1888C24.4444 53.8953 24.9294 54.508 25.5473 54.9631C26.546 55.6737 28.4038 55.5445 28.5004 54.3172C28.737 54.8057 29.0901 55.2283 29.5284 55.5475C29.9667 55.8668 30.4767 56.0728 31.0133 56.1474C30.8168 56.5455 30.7043 56.98 30.6829 57.4236C30.6615 57.8673 30.7316 58.3106 30.8888 58.7259C31.046 59.1412 31.287 59.5195 31.5967 59.8372C31.9063 60.1548 32.278 60.4051 32.6885 60.5722C32.2849 60.9676 31.9853 61.4572 31.8165 61.9971C31.6478 62.537 31.6151 63.1105 31.7215 63.6661C31.8279 64.2218 32.07 64.7423 32.4261 65.1813C32.7823 65.6202 33.2414 65.9638 33.7624 66.1813C33.536 66.838 33.579 67.558 33.8821 68.1829C34.1852 68.8078 34.7235 69.2863 35.3786 69.5133C36.0336 69.7403 36.7518 69.6971 37.3751 69.3933C37.9984 69.0894 38.4758 68.5498 38.7022 67.8931C39.1065 68.8845 39.7845 69.7397 40.6566 70.3584C40.8796 70.4979 41.1286 70.5903 41.3884 70.63C41.6482 70.6697 41.9133 70.6559 42.1676 70.5894C42.4219 70.5229 42.66 70.4051 42.8673 70.2432C43.0747 70.0813 43.2469 69.8788 43.3735 69.6479C43.5659 70.1436 43.8659 70.5902 44.2518 70.9553C44.6377 71.3204 45.0997 71.5949 45.6045 71.7588C46.1093 71.9226 46.6441 71.9719 47.1702 71.9028C47.6963 71.8338 48.2005 71.6483 48.6463 71.3597C48.6406 71.9477 48.8563 72.5161 49.2502 72.9517C49.6442 73.3873 50.1875 73.6579 50.7718 73.7095C51.356 73.7611 51.9382 73.59 52.4021 73.2303C52.8661 72.8706 53.1776 72.3487 53.2746 71.7688L59.2669 71.715C60.5973 71.7369 61.927 71.6396 63.2402 71.4243C64.9104 71.08 66.4749 70.3419 67.8041 69.2711C68.1875 68.8096 68.7221 68.4999 69.3123 68.3974C69.9025 68.2948 70.5099 68.4061 71.0258 68.7113C72.6189 69.1709 74.3028 69.2144 75.9174 68.8375C77.532 68.4606 79.0236 67.6759 80.2503 66.5581C80.6042 66.1731 81.0132 65.8429 81.4638 65.5784C82.0313 65.3757 82.6351 65.295 83.2357 65.3415C84.7134 65.3137 86.1817 65.1003 87.6064 64.7063C88.2292 64.5977 88.8232 64.362 89.3515 64.0139C89.8798 63.6657 90.3312 63.2125 90.6777 62.6823C91.2468 61.5519 90.581 59.8078 89.3138 59.8293C89.2446 59.4232 89.2687 59.0066 89.384 58.6111C89.4994 58.2157 89.7031 57.8517 89.9796 57.547C90.2718 57.2565 90.6614 57.0856 91.0724 57.0677C91.4834 57.0498 91.8864 57.1861 92.2025 57.4501C92.3358 57.5991 92.4292 57.7795 92.4741 57.9745C92.5189 58.1695 92.5138 58.3727 92.4591 58.5651C92.4044 58.7576 92.3019 58.933 92.1613 59.075C92.0207 59.217 91.8465 59.3209 91.6549 59.3772C93.0187 60.3138 95.1235 59.0004 95.1557 57.3424C95.1064 56.5198 94.7453 55.7473 94.1464 55.1829C93.5475 54.6185 92.756 54.3049 91.9341 54.3064C92.2664 53.1202 92.2996 51.8698 92.0307 50.6675C92.4701 51.189 93.0914 51.5229 93.7679 51.6009C94.4444 51.6789 95.1251 51.4953 95.6712 51.0874C95.9929 51.6318 96.4231 52.104 96.9349 52.4744C97.4467 52.8449 98.0291 53.1057 98.6458 53.2406C99.2664 53.3543 99.9072 53.2505 100.461 52.9466C101.014 52.6428 101.446 52.1574 101.685 51.5718C101.773 51.2765 101.792 50.9646 101.739 50.6608C101.686 50.357 101.564 50.0696 101.382 49.8212C101.2 49.5728 100.963 49.3702 100.689 49.2294C100.416 49.0885 100.113 49.0133 99.8056 49.0095C99.9854 48.6452 100.069 48.2408 100.049 47.8348C100.028 47.4289 99.9046 47.0349 99.6892 46.6905C99.4738 46.3461 99.1741 46.0628 98.8185 45.8676C98.4628 45.6723 98.0633 45.5717 97.6578 45.5752C97.7719 44.7634 97.6133 43.9365 97.2069 43.2251C96.8006 42.5136 96.1696 41.9579 95.4134 41.6456C95.6609 41.7817 95.9351 41.8617 96.2168 41.8802C96.4984 41.8986 96.7807 41.855 97.0437 41.7524C97.3068 41.6498 97.5442 41.4907 97.7393 41.2862C97.9345 41.0818 98.0826 40.837 98.1733 40.569C98.9357 41.7748 100.794 41.4841 102.029 40.752C102.591 40.5518 103.068 40.1627 103.377 39.6505C103.686 39.1384 103.809 38.5348 103.725 37.9421Z" fill="#272727"/>
<path d="M103.714 37.9412C103.765 38.0978 103.79 38.2612 103.79 38.4257C103.802 38.9285 103.639 39.4198 103.328 39.8145C102.793 40.4406 102.105 40.9156 101.33 41.1925C100.837 41.3819 100.311 41.4698 99.784 41.4509C99.4723 41.4498 99.1655 41.3739 98.889 41.2297C98.6125 41.0855 98.3744 40.8771 98.1946 40.6219H98.3235C98.2236 40.897 98.0654 41.1471 97.8597 41.3549C97.654 41.5628 97.4058 41.7234 97.1322 41.8258C96.8586 41.9281 96.5661 41.9697 96.2749 41.9478C95.9837 41.9258 95.7008 41.8408 95.4455 41.6985L95.5314 41.5478C96.3062 41.8663 96.9539 42.4331 97.3735 43.1595C97.7932 43.886 97.9611 44.7313 97.851 45.5635L97.7436 45.4451C98.1517 45.4245 98.5579 45.5135 98.9203 45.7027C99.2827 45.892 99.5883 46.1747 99.8055 46.5217C100.061 46.8803 100.21 47.3037 100.237 47.7435C100.264 48.1833 100.166 48.6217 99.9558 49.0086L99.8377 48.8256C100.295 48.8096 100.744 48.9516 101.11 49.2279C101.476 49.5043 101.735 49.8982 101.846 50.3436C101.986 50.8129 101.963 51.3162 101.779 51.7703C101.596 52.2245 101.263 52.6022 100.836 52.8413C100.409 53.1095 99.9256 53.2736 99.4239 53.3203C98.9222 53.3671 98.4166 53.2952 97.9476 53.1105C96.9799 52.7011 96.1622 52.0016 95.6066 51.108H95.8106C95.2355 51.5401 94.5176 51.7361 93.8033 51.6561C93.089 51.5761 92.432 51.2261 91.9662 50.6773L92.2346 50.5481C92.5055 51.775 92.476 53.0494 92.1487 54.2624L91.9984 54.0686C92.8147 54.0852 93.6017 54.3773 94.232 54.8976C94.5648 55.1561 94.8406 55.4808 95.042 55.8514C95.2435 56.222 95.3662 56.6303 95.4026 57.0508C95.4142 57.4929 95.3116 57.9305 95.1046 58.321C94.8976 58.7115 94.5933 59.0417 94.2213 59.2793C93.8563 59.5615 93.4146 59.7259 92.9544 59.7509C92.4942 59.7759 92.0373 59.6602 91.644 59.4193L91.2682 59.1502H91.7192C91.9534 59.0821 92.1533 58.9277 92.2788 58.7181C92.4042 58.5084 92.446 58.259 92.3957 58.0197C92.3372 57.7674 92.1899 57.5446 91.9808 57.3923C91.7718 57.2401 91.5149 57.1685 91.2574 57.1907C90.9763 57.1976 90.7017 57.2776 90.4607 57.4229C90.2197 57.5682 90.0206 57.7739 89.8829 58.0197C89.6001 58.5503 89.4947 59.1579 89.5822 59.7531L89.3996 59.5916C89.6268 59.5934 89.8509 59.6444 90.0566 59.741C90.2623 59.8376 90.4448 59.9776 90.5916 60.1514C90.8788 60.4872 91.065 60.8979 91.1285 61.3357C91.2008 61.7809 91.141 62.2376 90.9567 62.6491C90.7723 63.064 90.497 63.432 90.1513 63.7257C89.4666 64.2564 88.6809 64.6411 87.8425 64.8561C87.0136 65.0841 86.1706 65.2567 85.3189 65.3729C83.6222 65.7282 81.6678 65.0391 80.5509 66.611C79.2087 67.8918 77.5276 68.7588 75.7077 69.1087C74.7866 69.3009 73.8426 69.3589 72.9049 69.2809C71.9683 69.1664 71.0443 68.9646 70.1451 68.678C69.7307 68.5653 69.289 68.6154 68.9101 68.818C68.5361 69.0689 68.1775 69.3422 67.8362 69.6362C67.0532 70.2307 66.1935 70.716 65.2804 71.0788C63.3981 71.7344 61.4072 72.0195 59.4171 71.9186L53.4034 71.9832L53.6182 71.7894C53.5435 72.4513 53.2136 73.0578 52.6989 73.4791C52.1841 73.9004 51.5255 74.1032 50.8637 74.0441C50.2018 73.9851 49.5892 73.6689 49.1568 73.1631C48.7244 72.6573 48.5064 72.002 48.5495 71.3372L48.9146 71.531C48.4388 71.84 47.9003 72.0389 47.3383 72.1135C46.7763 72.1881 46.2047 72.1365 45.6651 71.9623C45.1254 71.7882 44.6312 71.4959 44.2181 71.1066C43.805 70.7173 43.4835 70.2408 43.2768 69.7116H43.7171C43.6112 69.984 43.4386 70.2254 43.2153 70.4136C42.992 70.6017 42.7251 70.7305 42.4392 70.7882C41.8686 70.9288 41.2668 70.8601 40.7424 70.5944C39.7793 69.9742 39.0295 69.0722 38.5947 68.0105H39.035C38.9388 68.397 38.7633 68.7591 38.5197 69.0737C38.276 69.3883 37.9695 69.6485 37.6199 69.8376C37.2703 70.0268 36.8851 70.1407 36.4891 70.1722C36.093 70.2036 35.6948 70.1519 35.3198 70.0203C34.9448 69.8888 34.6013 69.6802 34.3113 69.408C34.0212 69.1358 33.791 68.8059 33.6353 68.4395C33.4797 68.073 33.4019 67.6781 33.4072 67.2798C33.4124 66.8815 33.5004 66.4887 33.6656 66.1265L33.8267 66.4387C33.2739 66.2288 32.7851 65.8781 32.4085 65.4213C32.0319 64.9645 31.7805 64.4172 31.679 63.8333C31.5241 63.2235 31.5372 62.5831 31.7169 61.9802C31.8966 61.3772 32.236 60.8345 32.6991 60.4098L32.7743 60.8404C32.3293 60.6618 31.926 60.3926 31.5899 60.0499C31.2539 59.7072 30.9923 59.2983 30.8218 58.8492C30.6513 58.4 30.5755 57.9203 30.5992 57.4403C30.6228 56.9603 30.7455 56.4904 30.9594 56.0603L31.142 56.4264C30.5643 56.3458 30.0153 56.1239 29.5434 55.7803C29.0714 55.4367 28.6911 54.982 28.4358 54.4562L28.9191 54.3701C28.8956 54.6867 28.7537 54.9828 28.5218 55.1991C28.3017 55.4033 28.031 55.5446 27.7378 55.6081C27.1815 55.7295 26.6017 55.6807 26.0733 55.4682C25.5692 55.2137 25.1201 54.8622 24.7515 54.4336C24.383 54.005 24.1024 53.5079 23.9256 52.9705C23.7344 52.426 23.6521 51.8491 23.6834 51.2728C23.7147 50.6964 23.8591 50.1319 24.1081 49.6115C24.6094 48.5479 25.4967 47.7162 26.5888 47.2861L26.4277 47.5767C26.3441 47.1588 26.4087 46.7247 26.6103 46.3494L26.7069 46.6832C26.4637 46.5293 26.2538 46.3281 26.0896 46.0913C25.9254 45.8546 25.8103 45.5873 25.7512 45.3051L25.8156 45.4235C25.4038 44.8913 25.1409 44.2586 25.0541 43.5906C24.9673 42.9226 25.0596 42.2435 25.3216 41.6232C25.8519 40.3649 26.6815 39.256 27.7378 38.3934L27.9312 38.8348C27.5186 38.8577 27.1068 38.7784 26.7322 38.6038C26.3576 38.4291 26.0317 38.1646 25.7834 37.8335L25.9123 37.9304C25.1901 37.7311 24.5597 37.2857 24.1296 36.6708L24.2048 36.7462C23.9306 36.5821 23.701 36.3529 23.5362 36.0788C23.3713 35.8046 23.2764 35.494 23.2598 35.1743C23.2446 34.8418 23.3065 34.5103 23.4407 34.2058C23.5748 33.9013 23.7776 33.6322 24.033 33.4195L24.1941 33.8824C24.0367 33.8851 23.8811 33.8493 23.7408 33.778C23.6004 33.7067 23.4795 33.6021 23.3887 33.4733C23.2233 33.2317 23.1302 32.9479 23.1202 32.6551C23.1064 32.3682 23.1572 32.0818 23.2687 31.8172C23.3802 31.5525 23.5497 31.3164 23.7645 31.1263C24.6558 30.4373 25.7512 30.3942 26.5566 29.9205L26.4707 29.9851C28.0011 27.9466 30.1306 26.4405 32.5595 25.6788L32.4951 26.1417L30.5084 24.9036L28.9943 23.967C28.4635 23.665 27.954 23.3269 27.4694 22.955C27.2063 22.7117 27.0355 22.3845 26.9861 22.0291C26.9501 21.6904 27.0057 21.3483 27.1472 21.0386C27.4102 20.4667 27.7951 19.9595 28.2748 19.5529C29.1623 18.7304 30.1922 18.0773 31.3138 17.6258C31.8746 17.405 32.4529 17.2321 33.0428 17.109C33.3622 17.0497 33.6898 17.0497 34.0092 17.109C34.1709 17.1484 34.3219 17.2227 34.4518 17.3269C34.5817 17.4311 34.6872 17.5625 34.761 17.7119L34.3959 17.5935C35.4158 17.0659 36.545 16.7857 37.6927 16.7753C38.2511 16.7753 38.7665 16.7215 39.3679 16.7753C39.9785 16.7651 40.5752 16.9582 41.0646 17.3244L40.6673 17.6366C40.184 16.6676 38.992 16.1616 38.294 15.0743C38.0917 14.8029 37.9644 14.4829 37.9248 14.1464C37.8852 13.81 37.9347 13.469 38.0685 13.1579C38.2237 12.8428 38.476 12.5861 38.788 12.4258C38.9535 12.3382 39.1378 12.2923 39.3249 12.2923C39.5121 12.2923 39.6964 12.3382 39.8619 12.4258L39.6471 12.8888C39.4836 12.8257 39.3367 12.7259 39.2176 12.5972C39.0985 12.4684 39.0103 12.3141 38.9598 12.1459C38.8737 11.836 38.8737 11.5084 38.9598 11.1985C39.0348 10.8862 39.2034 10.6044 39.443 10.3911C39.6611 10.1811 39.9209 10.0197 40.2055 9.91738C40.7368 9.73854 41.2892 9.62996 41.8485 9.5944C42.1401 9.5462 42.4376 9.5462 42.7291 9.5944C42.9036 9.62626 43.0675 9.70095 43.2061 9.81179C43.3448 9.92262 43.4539 10.0662 43.5238 10.2296H43.0298C43.1142 9.88192 43.2984 9.56666 43.5597 9.32284C43.8209 9.07902 44.1477 8.91733 44.4997 8.85776C44.8516 8.79819 45.2133 8.84336 45.5399 8.98768C45.8665 9.132 46.1437 9.36913 46.3373 9.66976H45.9185C46.1201 9.44065 46.3679 9.25715 46.6457 9.13146C46.9234 9.00577 47.2246 8.94077 47.5293 8.94077C47.834 8.94077 48.1353 9.00577 48.413 9.13146C48.6907 9.25715 48.9386 9.44065 49.1401 9.66976H48.7965C49.3177 9.3217 49.9412 9.16097 50.5653 9.21376C51.1894 9.26655 51.7772 9.52975 52.2329 9.96045L51.857 10.2942L50.1925 7.96874C49.8623 7.58229 49.6236 7.12588 49.4945 6.63376C49.4352 6.36063 49.4352 6.07791 49.4945 5.80478C49.5389 5.64051 49.6326 5.49392 49.763 5.38491C49.9038 5.27603 50.0795 5.22244 50.2569 5.23419V5.72942C49.9202 5.74599 49.5863 5.66032 49.299 5.48361C49.0116 5.3069 48.784 5.04736 48.6461 4.73895C48.4889 4.45417 48.4002 4.13649 48.3871 3.81124C48.3741 3.48599 48.437 3.16219 48.571 2.86567C48.8804 2.33131 49.3363 1.89717 49.8845 1.61475C50.4327 1.33233 51.0502 1.21348 51.6637 1.27231H51.7711L51.8463 1.35843C52.2221 1.82137 52.5873 2.27354 52.9202 2.71495H52.5658C52.9693 2.3786 53.4675 2.17676 53.9909 2.13753C54.5142 2.0983 55.0368 2.22363 55.4858 2.49607C55.9347 2.76852 56.2878 3.17452 56.4959 3.65757C56.7039 4.14062 56.7566 4.67667 56.6465 5.19112L56.217 4.98657C56.3563 4.82201 56.5386 4.6996 56.7435 4.63305C56.9483 4.5665 57.1676 4.55844 57.3767 4.60976C57.7695 4.68019 58.1219 4.89522 58.3647 5.21265C58.7371 5.82816 58.9236 6.53865 58.9016 7.25819L58.4828 7.10746C58.7869 6.84233 59.1593 6.66832 59.5574 6.60532C59.9555 6.54233 60.3632 6.59289 60.734 6.75123C61.1047 6.90957 61.4236 7.16931 61.6541 7.50074C61.8846 7.83217 62.0174 8.22193 62.0373 8.62546L61.6722 8.41014C62.6801 7.7845 63.8374 7.44238 65.0227 7.41968L64.8402 7.79648C64.5181 7.36377 64.3459 6.83739 64.3499 6.29751C64.3538 5.75763 64.5337 5.23384 64.862 4.8059C65.1904 4.37797 65.6492 4.06935 66.1687 3.92705C66.6882 3.78474 67.2398 3.81655 67.7396 4.01763L67.4174 4.23295C67.4349 3.87564 67.5305 3.52654 67.6973 3.2103C67.8641 2.89407 68.0982 2.6184 68.3829 2.40277C68.6676 2.18715 68.9961 2.03682 69.3451 1.9624C69.6941 1.88798 70.0552 1.89129 70.4028 1.97209L70.1129 2.15512C70.2313 1.55189 70.5537 1.0081 71.0256 0.615586C71.4814 0.197433 72.0836 -0.0231475 72.7009 0.00192582C73.014 0.0387587 73.3118 0.157666 73.5645 0.346675C73.8171 0.535683 74.0156 0.788115 74.1399 1.07852C74.3507 1.6273 74.3991 2.22538 74.2795 2.80108C74.0382 3.8612 73.6779 4.89052 73.2056 5.86938L71.9492 8.78695L71.627 8.5178L75.8259 5.77249L77.877 4.4375C78.2091 4.18468 78.5695 3.97152 78.9508 3.80231C79.0743 3.77242 79.2025 3.76749 79.3278 3.78782C79.4532 3.80816 79.5733 3.85334 79.6811 3.92074C79.8744 4.0284 80.0354 4.14682 80.1858 4.21142C80.5364 4.30035 80.8994 4.32947 81.2597 4.29754C81.4863 4.30563 81.7086 4.3616 81.9122 4.46178C82.1158 4.56196 82.2959 4.70411 82.4409 4.87891C82.6794 5.23667 82.8259 5.6481 82.8671 6.07643C82.9083 6.50476 82.8431 6.93666 82.6772 7.33355C82.3378 8.04323 81.8196 8.65182 81.1738 9.09917C80.5607 9.53008 79.9826 10.0089 79.4448 10.531L79.3159 10.1865L82.5376 10.5203L82.3121 10.6925C82.3979 10.2219 82.5803 9.77423 82.8477 9.37793C83.1151 8.98163 83.4617 8.64531 83.8655 8.39028C84.2693 8.13524 84.7215 7.96704 85.1935 7.89633C85.6655 7.82562 86.147 7.85395 86.6076 7.9795L86.3605 8.1087C86.4889 7.75067 86.7061 7.43133 86.9917 7.1808C87.2773 6.93028 87.6219 6.75683 87.9929 6.67682C88.6689 6.49699 89.3661 6.41007 90.0654 6.41844C90.7571 6.37027 91.4518 6.44684 92.1165 6.64453C92.4452 6.75885 92.7467 6.94036 93.0018 7.17758C93.2569 7.41479 93.4601 7.70253 93.5985 8.02257C93.8374 8.65593 93.9016 9.34214 93.7845 10.009C93.6673 10.6759 93.3731 11.2988 92.9327 11.8122C92.0878 12.7448 91.0888 13.5242 89.9795 14.1161L90.0547 13.9116C90.1418 14.1334 90.2881 14.327 90.4774 14.4713C90.6668 14.6156 90.892 14.705 91.1285 14.7298C91.639 14.8136 92.162 14.773 92.6535 14.6113C93.1602 14.4368 93.6812 14.3071 94.2106 14.2238C94.7592 14.1327 95.3223 14.2395 95.7999 14.5252C96.7234 15.0958 97.2711 16.0109 98.1195 16.42C98.5783 16.5627 99.0443 16.6813 99.5155 16.7753C99.7463 16.8935 99.9497 17.059 100.113 17.2612C100.275 17.4634 100.394 17.6977 100.461 17.9488L101.309 20.608C101.398 20.836 101.435 21.0813 101.416 21.3255C101.398 21.5697 101.324 21.8065 101.201 22.0183C100.926 22.4097 100.511 22.6796 100.042 22.7719C99.6031 22.8689 99.1487 22.8689 98.7101 22.7719C98.2996 22.6587 97.9005 22.5074 97.5181 22.3198C96.8303 21.9259 96.0773 21.6596 95.2952 21.5339V21.297C96.2121 21.6272 97.0936 22.0492 97.9262 22.5566C98.7137 23.0318 99.3534 23.7178 99.7732 24.5376C100.12 25.3164 100.185 26.1922 99.9558 27.0137C99.8551 27.3983 99.6536 27.7488 99.3723 28.029C99.0909 28.3091 98.7399 28.5087 98.3557 28.6071C97.7161 29.0202 96.9687 29.2338 96.208 29.2208L96.3046 29.1239C96.5773 31.2022 97.1905 33.2211 98.1195 35.099H98.0658C99.0797 35.0883 100.091 35.2114 101.073 35.465C101.764 35.6593 102.393 36.0303 102.898 36.5416C103.188 36.8494 103.408 37.2167 103.543 37.6182C103.59 37.7462 103.619 37.8803 103.628 38.0166C103.507 37.481 103.235 36.9916 102.844 36.6062C102.347 36.0961 101.725 35.7251 101.04 35.5296C100.064 35.2861 99.0605 35.1739 98.055 35.1959C97.1029 33.307 96.4679 31.2737 96.1758 29.1777V29.07H96.2831C97.0176 29.0856 97.7397 28.8792 98.3557 28.4779C98.7051 28.3845 99.0235 28.1997 99.2782 27.9425C99.5329 27.6852 99.7149 27.3647 99.8055 27.0137C100.023 26.238 99.9587 25.4098 99.6229 24.6775C99.2183 23.9023 98.6043 23.2568 97.851 22.815C97.0243 22.3235 96.1544 21.9091 95.2522 21.5769L94.5113 21.2862H95.3059C96.1213 21.4007 96.908 21.6673 97.6255 22.0722C97.9883 22.2565 98.3699 22.4009 98.7638 22.5028C99.1637 22.5889 99.5773 22.5889 99.9773 22.5028C100.374 22.4212 100.726 22.1948 100.965 21.8676C101.061 21.6867 101.117 21.4871 101.128 21.2826C101.139 21.0781 101.105 20.8736 101.03 20.6834L100.267 18.0242C100.214 17.8114 100.117 17.6123 99.9817 17.4398C99.8466 17.2673 99.6768 17.1252 99.4833 17.0229C99.0039 16.9339 98.5305 16.8153 98.0658 16.6676C97.11 16.1939 96.5623 15.2681 95.7247 14.7728C94.8871 14.2776 93.8347 14.5898 92.8253 14.8913C92.29 15.0727 91.7187 15.1208 91.1608 15.0312C90.8516 15.0024 90.5571 14.8858 90.3118 14.6951C90.0664 14.5045 89.8804 14.2476 89.7755 13.9546V13.8254L89.8936 13.7608C90.9626 13.1825 91.925 12.4251 92.7393 11.5215C93.1393 11.0611 93.4074 10.5007 93.5151 9.89978C93.6229 9.29889 93.5663 8.67996 93.3515 8.1087C93.2164 7.8233 93.0204 7.5712 92.7773 7.37025C92.5341 7.16931 92.2499 7.02446 91.9447 6.94597C91.3209 6.76539 90.6696 6.69973 90.0225 6.75218C89.3594 6.74746 88.6986 6.83073 88.0573 6.9998C87.7468 7.06016 87.457 7.1999 87.2162 7.4055C86.9754 7.6111 86.7916 7.87557 86.6827 8.17329L86.629 8.36708L86.4357 8.30249C86.0333 8.20466 85.6152 8.18972 85.2068 8.25859C84.7985 8.32746 84.4083 8.4787 84.0599 8.70316C83.7115 8.92761 83.4122 9.2206 83.1801 9.56439C82.948 9.90819 82.7878 10.2956 82.7094 10.7033V10.8863H82.5268L79.3052 10.5633H78.8972L79.1763 10.2619C79.7213 9.71206 80.3103 9.20796 80.9375 8.75466C81.5504 8.34473 82.0404 7.77532 82.355 7.10746C82.4911 6.77747 82.5466 6.41963 82.5167 6.0638C82.4868 5.70796 82.3724 5.36445 82.1832 5.06193C82.0761 4.93231 81.9414 4.82831 81.7891 4.75753C81.6367 4.68675 81.4705 4.65098 81.3026 4.65282C80.8795 4.68601 80.4538 4.64223 80.0462 4.52363C79.6274 4.31908 79.3589 4.04993 79.0797 4.14682C78.7348 4.302 78.4073 4.49326 78.1025 4.71742L76.0621 6.06316L71.874 8.80849L71.2619 9.20682L71.5519 8.53934C71.9599 7.5704 72.3787 6.60146 72.7976 5.62175C73.264 4.67415 73.6242 3.67759 73.8714 2.65035C73.9782 2.1622 73.9409 1.65343 73.764 1.18618C73.6706 0.969566 73.5223 0.781145 73.334 0.639537C73.1457 0.497929 72.9238 0.408036 72.6902 0.378733C72.1932 0.397336 71.7169 0.582456 71.3372 0.904489C70.9576 1.22652 70.6967 1.66687 70.5961 2.15512V2.4135L70.3491 2.33814C70.0711 2.28059 69.7839 2.28346 69.5071 2.34657C69.2302 2.40967 68.97 2.53154 68.7441 2.70396C68.5182 2.87637 68.3318 3.09533 68.1974 3.34609C68.063 3.59684 67.9838 3.87356 67.9651 4.15759V4.5021L67.643 4.37291C67.2382 4.20705 66.7903 4.17895 66.3681 4.2929C65.9458 4.40686 65.5726 4.65656 65.3056 5.00372C65.0385 5.35087 64.8925 5.77628 64.8899 6.21465C64.8873 6.65302 65.0283 7.08013 65.2912 7.43044L65.5704 7.80725H65.1086C64.0099 7.83047 62.9377 8.15032 62.0051 8.73313L61.6185 8.98074V8.52857C61.5829 8.22797 61.4688 7.94211 61.2878 7.69978C61.1068 7.45745 60.8653 7.2672 60.5877 7.14822C60.31 7.02924 60.006 6.98571 59.7063 7.02202C59.4065 7.05834 59.1215 7.17321 58.8801 7.35508L58.4936 7.74265V7.20435C58.5228 6.57843 58.3699 5.95749 58.0533 5.41721C57.7526 4.98657 56.9794 4.80354 56.6787 5.20188L56.0022 6.10623L56.2492 5.02963C56.3358 4.61599 56.2918 4.18557 56.1233 3.79814C55.9547 3.41071 55.6701 3.08551 55.3088 2.86771C54.9474 2.6499 54.5275 2.5503 54.1071 2.58273C53.6867 2.61516 53.2869 2.77802 52.9631 3.04869L52.7698 3.19941L52.6087 3.01639L51.5349 1.65988L51.7174 1.74601C51.2001 1.6955 50.6791 1.79189 50.2139 2.02414C49.7486 2.2564 49.3579 2.61517 49.0864 3.05946C48.6461 3.90997 49.3227 5.29878 50.2784 5.21265V5.70788C50.1174 5.70788 50.0637 5.70789 50.01 5.92321C49.9618 6.11399 49.9618 6.31379 50.01 6.50456C50.1162 6.93324 50.3265 7.32897 50.6221 7.65653L52.2866 9.97121L51.9107 10.305C51.5408 9.9557 51.065 9.74052 50.5591 9.6937C50.0531 9.64687 49.5461 9.77109 49.1186 10.0466L48.9361 10.1865L48.7857 10.0143C48.6276 9.85051 48.4381 9.7203 48.2288 9.63137C48.0194 9.54244 47.7943 9.49661 47.5669 9.49661C47.3395 9.49661 47.1144 9.54244 46.9051 9.63137C46.6957 9.7203 46.5063 9.85051 46.3481 10.0143L46.0903 10.3265L45.9292 9.96045C45.7835 9.75942 45.5847 9.60315 45.3552 9.50925C45.1257 9.41534 44.8746 9.38753 44.6302 9.42892C44.3858 9.47032 44.1578 9.5793 43.9718 9.74358C43.7858 9.90786 43.6492 10.1209 43.5775 10.3588L43.4701 11.6292L43.0835 10.4126C42.9868 10.0896 42.4284 10.025 41.9344 10.0789C41.4233 10.1133 40.9183 10.2109 40.431 10.3696C40.2116 10.4387 40.012 10.56 39.8493 10.723C39.6867 10.8861 39.5657 11.0862 39.4967 11.3062C39.3786 11.7476 39.4967 12.2644 39.8833 12.3828L39.6686 12.8565C39.3142 12.6412 38.788 12.9426 38.5947 13.3733C38.5049 13.6043 38.4765 13.8547 38.5123 14.1001C38.5481 14.3454 38.6468 14.5772 38.7987 14.7728C39.3679 15.7095 40.5706 16.2047 41.2042 17.3782L41.8056 18.4548L40.8069 17.6473C40.0659 17.0552 38.8631 17.249 37.8 17.2705C36.7327 17.2765 35.6814 17.5308 34.7288 18.0134L34.471 18.1749L34.3636 17.895C34.224 17.5289 33.6012 17.4751 33.0965 17.5827C32.5377 17.6897 31.9909 17.852 31.4642 18.0672C30.4024 18.4931 29.4271 19.1097 28.5862 19.8867C28.1606 20.2435 27.8164 20.6877 27.5768 21.1894C27.4522 21.4041 27.4056 21.6554 27.4447 21.9006C27.4839 22.1459 27.6064 22.3701 27.7915 22.5351C28.2432 22.8865 28.7206 23.2032 29.2198 23.4825L30.7339 24.4191L32.7313 25.6572L33.2146 25.9587L32.6669 26.1309C30.3424 26.8631 28.3063 28.3093 26.8465 30.2651C25.88 30.8141 24.8169 30.868 24.1189 31.4386C23.9685 31.573 23.85 31.7394 23.7719 31.9257C23.6939 32.112 23.6583 32.3134 23.6679 32.5151C23.6679 32.935 23.8934 33.2688 24.2263 33.2472H25.0424L24.3874 33.7532C24.1953 33.9141 24.043 34.1174 23.9424 34.3471C23.8418 34.5769 23.7956 34.8268 23.8074 35.0774C23.8178 35.3141 23.8884 35.5442 24.0124 35.7458C24.1365 35.9475 24.3099 36.1139 24.5162 36.2294C24.8752 36.7546 25.4076 37.1359 26.0196 37.306H26.1056V37.3706C26.3071 37.632 26.5684 37.8409 26.8675 37.9796C27.1666 38.1182 27.4946 38.1826 27.8238 38.1673L28.5969 38.0919L28.017 38.6087C27.0318 39.4109 26.2514 40.4369 25.7404 41.6016C25.5038 42.1331 25.4148 42.7188 25.4828 43.2968C25.5509 43.8748 25.7734 44.4236 26.127 44.8852V44.9498C26.2158 45.3898 26.4744 45.7768 26.8465 46.0264L27.0506 46.1449L26.9432 46.3602C26.798 46.634 26.7524 46.9499 26.8143 47.2538V47.4691L26.6103 47.5444C25.6378 47.9268 24.8469 48.6658 24.3981 49.6115C24.1779 50.0721 24.0512 50.572 24.0254 51.0821C23.9996 51.5922 24.0752 52.1023 24.2477 52.5829C24.3964 53.0557 24.6371 53.4942 24.956 53.8731C25.2749 54.2519 25.6656 54.5636 26.1056 54.7899C26.5388 54.9622 27.013 55.0034 27.4694 54.9084C27.6535 54.9057 27.8327 54.848 27.9839 54.7424C28.1351 54.6369 28.2513 54.4885 28.3177 54.3162L28.3822 53.3365L28.801 54.2301C29.0213 54.6798 29.3477 55.0687 29.7519 55.3633C30.1561 55.6578 30.6259 55.8491 31.1205 55.9204H31.4857L31.3031 56.2541C31.1242 56.6195 31.022 57.0178 31.0029 57.4243C30.9839 57.8309 31.0483 58.237 31.1923 58.6176C31.3363 58.9981 31.5568 59.345 31.84 59.6366C32.1232 59.9282 32.4631 60.1584 32.8387 60.3129L33.2683 60.4528L32.9139 60.7435C32.5199 61.1102 32.2328 61.5774 32.0834 62.0952C31.934 62.6129 31.9278 63.1616 32.0655 63.6826C32.1524 64.1847 32.3686 64.6554 32.6925 65.0482C33.0164 65.4409 33.437 65.7421 33.9126 65.9219L34.1489 65.9973L34.063 66.2342C33.878 66.8468 33.9369 67.5073 34.2272 68.0774C34.5175 68.6474 35.0167 69.0826 35.6201 69.2917C36.2066 69.442 36.8278 69.373 37.3673 69.0976C37.9069 68.8222 38.3279 68.3592 38.5517 67.7952L38.7343 67.2569L38.992 67.7629C39.3771 68.7361 40.0473 69.5694 40.9143 70.153C41.1056 70.2665 41.3175 70.3407 41.5377 70.3713C41.7579 70.4019 41.982 70.3882 42.1969 70.3311C42.4118 70.274 42.6132 70.1746 42.7894 70.0386C42.9656 69.9027 43.113 69.7329 43.2231 69.5393L43.4486 68.8611L43.6634 69.5501C43.8406 70.0264 44.1275 70.4541 44.5007 70.7983C44.8739 71.1426 45.3229 71.3936 45.8111 71.531C46.2684 71.6775 46.7526 71.7197 47.2282 71.6545C47.7039 71.5893 48.159 71.4184 48.5602 71.1542L48.9361 70.8635V71.348C48.9348 71.8939 49.1403 72.4199 49.5111 72.8196C49.8819 73.2194 50.3903 73.463 50.9335 73.5012C51.4436 73.5091 51.9398 73.3347 52.3334 73.0092C52.7269 72.6837 52.992 72.2284 53.0812 71.7248V71.531H53.2745H59.299C61.2339 71.6328 63.1701 71.3586 65.0012 70.7236C65.8804 70.3801 66.708 69.9163 67.4604 69.3455C67.8337 69.0312 68.2284 68.7435 68.6416 68.4843C69.1205 68.2323 69.6766 68.1708 70.1988 68.312C71.0789 68.6015 71.9853 68.8034 72.9049 68.9149C73.806 68.9889 74.713 68.9382 75.6004 68.7642C77.3409 68.4229 78.9494 67.5942 80.2395 66.3741C80.5565 66.0391 80.9178 65.7494 81.3134 65.5128C81.7341 65.3036 82.1968 65.1931 82.6664 65.1899C83.5243 65.1946 84.3816 65.1442 85.233 65.0391C86.0678 64.9328 86.8934 64.7637 87.7029 64.5331C88.4844 64.3244 89.2151 63.958 89.8506 63.4565C90.153 63.228 90.3897 62.9235 90.5368 62.5737C90.6839 62.2239 90.7361 61.8414 90.6883 61.4648C90.6701 61.1025 90.5241 60.7585 90.2762 60.4942C90.0283 60.2299 89.6948 60.0626 89.3352 60.0222H89.1741V59.8499C89.0835 59.1757 89.2075 58.49 89.5285 57.8905C89.6967 57.5919 89.9397 57.3425 90.2335 57.1669C90.5273 56.9913 90.8617 56.8956 91.2037 56.8893C91.5408 56.8547 91.8789 56.9451 92.1539 57.1435C92.429 57.3419 92.622 57.6345 92.6964 57.9659C92.7672 58.2969 92.7056 58.6424 92.5248 58.9283C92.3441 59.2142 92.0587 59.4176 91.7299 59.4947L91.8051 59.1825C92.1375 59.3724 92.5181 59.4604 92.8999 59.4356C93.2817 59.4107 93.6478 59.274 93.9528 59.0425C94.2886 58.8483 94.5658 58.5667 94.7548 58.2274C94.9439 57.8881 95.0378 57.5039 95.0267 57.1154C94.9233 56.3685 94.5548 55.6841 93.9886 55.1877C93.4225 54.6914 92.6968 54.4163 91.9447 54.4131H91.7407V54.2086C92.0711 53.0477 92.1044 51.8221 91.8373 50.645L91.6977 49.9991L92.1058 50.5266C92.5241 51.0103 93.1086 51.3186 93.7432 51.3904C94.3778 51.4622 95.0161 51.2922 95.5314 50.9142L95.6603 50.8173L95.7462 50.9465C96.2636 51.7965 97.0334 52.4628 97.9476 52.8521C98.376 53.0278 98.8399 53.0989 99.3011 53.0596C99.7622 53.0203 100.207 52.8716 100.6 52.626C100.977 52.4135 101.272 52.0811 101.44 51.6814C101.607 51.2816 101.637 50.8374 101.524 50.419C101.429 50.0273 101.204 49.6797 100.886 49.4332C100.567 49.1866 100.175 49.0559 99.7732 49.0624H99.537L99.6551 48.8471C99.8139 48.5053 99.8852 48.1293 99.8628 47.7529C99.8404 47.3765 99.7249 47.0117 99.5268 46.6912C99.3286 46.3708 99.054 46.1048 98.7277 45.9174C98.4014 45.7299 98.0337 45.6268 97.6577 45.6173H97.5288V45.4774C97.6379 44.6924 97.4868 43.8933 97.0988 43.2028C96.7108 42.5123 96.1073 41.9687 95.3811 41.6555L95.4563 41.494C95.6922 41.6232 95.9534 41.6996 96.2217 41.7178C96.49 41.736 96.7589 41.6955 97.0101 41.5993C97.2613 41.5031 97.4887 41.3534 97.6765 41.1604C97.8643 40.9675 98.0081 40.736 98.098 40.482V40.3205L98.1946 40.4604C98.3544 40.7022 98.5713 40.9005 98.8262 41.0377C99.0811 41.1748 99.3658 41.2465 99.6551 41.2463C100.171 41.2704 100.686 41.1898 101.169 41.0095C101.929 40.748 102.609 40.2958 103.145 39.696C103.446 39.315 103.615 38.8467 103.628 38.3611C103.747 38.1027 103.704 37.9412 103.714 37.9412Z" fill="#8F8F8F"/>
<path d="M76.8568 81.8492C76.7601 78.6732 76.685 76.1755 76.7172 76.1755C76.7494 76.1755 87.5311 74.6145 87.7888 63.7947C87.9177 58.5732 87.2948 47.7964 86.629 38.0424C86.2812 32.9867 84.0473 28.2476 80.3719 24.7684C76.6965 21.2892 71.8492 19.3249 66.7946 19.2666H65.7207C54.488 19.7941 48.6569 29.6558 49.4838 40.8954L50.6328 82.0645L57.076 97.729C63.4548 104.738 77.2326 91.3448 76.8675 81.8599L76.8568 81.8492Z" fill="#C78976"/>
<path d="M76.7817 76.1579C71.7959 76.0943 66.9327 74.5998 62.7677 71.8516C62.7677 71.8516 65.9893 80.1414 76.7817 79.2909V76.1579Z" fill="#8B5D54"/>
<path d="M82.4627 47.6717C82.4601 48.0737 82.3018 48.4589 82.0213 48.7461C81.7408 49.0333 81.36 49.2001 80.9592 49.2113C80.7631 49.2229 80.5667 49.1956 80.3811 49.131C80.1956 49.0664 80.0246 48.9657 79.8779 48.8346C79.7313 48.7036 79.6118 48.5449 79.5265 48.3675C79.4412 48.1901 79.3916 47.9976 79.3806 47.8009C79.3805 47.3971 79.5375 47.0092 79.8183 46.7196C80.0991 46.4301 80.4815 46.2618 80.8841 46.2506C81.081 46.239 81.2783 46.2667 81.4646 46.332C81.6508 46.3973 81.8222 46.4989 81.969 46.6311C82.1158 46.7632 82.2351 46.9232 82.3198 47.1019C82.4045 47.2805 82.4531 47.4742 82.4627 47.6717Z" fill="#272727"/>
<path d="M84.3312 42.4737C84.1379 42.6675 82.9781 41.7847 81.3243 41.7739C79.6706 41.7632 78.4356 42.5706 78.2638 42.3661C78.092 42.1615 78.3712 41.9139 78.9081 41.5371C79.6313 41.0497 80.4852 40.7944 81.3566 40.805C82.2199 40.8134 83.0583 41.0961 83.7513 41.6125C84.256 42.0323 84.4278 42.3984 84.3312 42.4737Z" fill="#272727"/>
<path d="M67.8256 48.4739C67.8257 48.8767 67.6683 49.2635 67.3872 49.5513C67.1062 49.8391 66.7238 50.005 66.3222 50.0135C66.126 50.0281 65.9289 50.0028 65.7427 49.9392C65.5564 49.8755 65.385 49.7748 65.2386 49.6431C65.0921 49.5114 64.9738 49.3514 64.8905 49.1727C64.8073 48.994 64.761 48.8002 64.7543 48.6031C64.7514 48.2014 64.9064 47.8146 65.1857 47.5265C65.465 47.2383 65.8463 47.0721 66.247 47.0636C66.4437 47.049 66.6413 47.0742 66.8282 47.1377C67.015 47.2012 67.1871 47.3018 67.3344 47.4334C67.4817 47.5649 67.6011 47.7249 67.6854 47.9036C67.7698 48.0824 67.8175 48.2763 67.8256 48.4739Z" fill="#272727"/>
<path d="M68.0512 42.9659C67.8579 43.1704 66.6981 42.2876 65.0444 42.2769C63.3906 42.2661 62.1557 43.0736 61.9838 42.869C61.812 42.6645 62.0912 42.4168 62.6282 42.04C63.3513 41.5527 64.2053 41.2973 65.0766 41.3079C65.9402 41.3148 66.7791 41.5977 67.4713 42.1154C68.0512 42.4707 68.1693 42.8798 68.0512 42.9659Z" fill="#272727"/>
<path d="M73.8714 55.8215C74.75 55.5517 75.6595 55.3962 76.5776 55.3585C76.9964 55.3585 77.4045 55.2401 77.4796 54.9494C77.5132 54.5124 77.42 54.0749 77.2112 53.6898C76.8246 52.6132 76.4165 51.5366 75.9977 50.46C74.3117 45.8307 73.0875 42.0303 73.2808 41.9657C73.4741 41.9011 74.9775 45.5938 76.6635 50.2124L77.834 53.4422C78.0913 53.9586 78.1597 54.5492 78.0273 55.1109C77.9642 55.2591 77.8687 55.3911 77.7479 55.4973C77.6271 55.6035 77.484 55.6812 77.3293 55.7246C77.0935 55.7803 76.8521 55.8092 76.6098 55.8107C75.7008 55.9248 74.7813 55.9284 73.8714 55.8215Z" fill="#272727"/>
<path d="M68.5342 37.3517C68.3623 37.8038 66.7086 37.567 64.7648 37.7823C62.8211 37.9976 61.2318 38.5144 60.9848 38.1161C60.8667 37.9115 61.1459 37.4916 61.7795 37.0395C62.6317 36.5103 63.5931 36.1829 64.5905 36.0821C65.5879 35.9814 66.595 36.11 67.5354 36.4581C68.2442 36.7811 68.6093 37.1364 68.5342 37.3517Z" fill="#272727"/>
<path d="M83.7299 36.8779C83.4399 37.2655 82.2909 36.8779 80.9164 36.8779C79.5418 36.8779 78.382 37.1579 78.1135 36.7703C77.9954 36.5765 78.1672 36.1997 78.672 35.8336C79.3486 35.3934 80.1421 35.1683 80.9486 35.1877C81.7593 35.1928 82.5479 35.4526 83.2037 35.9305C83.6869 36.3073 83.848 36.6949 83.7299 36.8779Z" fill="#272727"/>
<path d="M75.4825 60.0965C75.2994 60.7393 75.0245 61.3521 74.6664 61.916C74.4878 62.2005 74.2508 62.4437 73.9712 62.6293C73.6916 62.8149 73.3758 62.9388 73.0448 62.9926C72.6888 63.008 72.3346 62.9345 72.014 62.7785C71.6934 62.6225 71.4166 62.389 71.2085 62.099C70.8051 61.511 70.5983 60.8099 70.6179 60.0965C70.6179 59.4506 70.8648 58.6754 71.4984 58.5678C71.7663 58.5463 72.0354 58.5907 72.2824 58.697L75.6865 59.892" fill="#8B5D54"/>
<path d="M74.2798 62.9268C73.679 62.9905 73.0718 62.9468 72.4864 62.7976C71.8923 62.594 71.3924 62.1807 71.0796 61.6349C70.9077 61.3058 70.8056 60.9446 70.7797 60.5741C70.7539 60.2035 70.8048 59.8316 70.9293 59.4817C70.9969 59.2989 71.0871 59.1253 71.1977 58.9649C71.3266 58.8142 71.3051 58.825 71.4447 58.8357C71.5843 58.8465 71.8099 58.9649 71.9924 59.0188L72.5508 59.2233C73.2811 59.4709 73.9361 59.697 74.4945 59.8693C75.081 60.1233 75.7049 60.2796 76.3416 60.3322C75.8244 59.9606 75.2517 59.6736 74.6449 59.4817C74.108 59.2448 73.4636 58.9865 72.7441 58.7065L72.1857 58.4912C71.9834 58.402 71.7753 58.3265 71.5629 58.2651C71.403 58.2085 71.2287 58.2085 71.0689 58.2651C70.9271 58.3337 70.8051 58.4375 70.7145 58.5666C70.5752 58.7715 70.4599 58.9919 70.3709 59.2233C70.2108 59.6582 70.149 60.1232 70.1898 60.5849C70.2307 61.0466 70.3732 61.4935 70.6071 61.8933C70.7991 62.2161 71.054 62.4969 71.3566 62.7189C71.6592 62.9408 72.0032 63.0994 72.3683 63.1852C72.8424 63.3185 73.3439 63.3185 73.818 63.1852C74.1402 63.0668 74.2905 62.9268 74.2798 62.9268Z" fill="#272727"/>
<path d="M89.4642 29.0301C89.4186 28.4875 89.3397 27.9482 89.2279 27.4153C88.926 26.6298 88.4311 25.9336 87.789 25.3913C85.7271 23.3565 83.5471 21.2679 80.9591 20.5896C79.3698 20.1805 77.7375 20.3313 76.1374 19.9437C75.1604 19.6344 74.1998 19.275 73.2595 18.8671C69.3108 17.5739 65.0919 17.3474 61.028 18.2104C58.7277 18.5333 56.5026 19.2623 54.4559 20.3635C52.2077 21.8151 50.2184 23.6347 48.5711 25.7465C45.7867 28.8688 43.5664 32.4537 42.0097 36.3402C40.728 39.5102 40.3995 42.9869 41.0647 46.3418C41.8487 49.6793 44.2004 52.6722 47.0677 53.1352L48.0771 51.7571L49.6772 49.7331C49.4087 50.5406 49.6772 50.4867 50.3537 50.8097C50.5226 50.8988 50.7083 50.9515 50.8987 50.9641C51.0891 50.9768 51.2801 50.9493 51.4593 50.8834C51.6384 50.8174 51.8018 50.7145 51.9387 50.5812C52.0757 50.448 52.1833 50.2874 52.2545 50.1099C52.8344 50.7666 53.962 49.9484 53.7257 49.0333C54.4022 49.3455 55.1647 48.4089 54.8962 47.6122C55.6694 47.8383 55.9701 46.5356 56.3352 45.7389C56.507 45.2868 56.7755 44.8777 56.9903 44.447C57.7083 43.0243 58.0063 41.4258 57.8494 39.8392C58.6273 38.4643 58.9997 36.8963 58.9232 35.3175C58.9232 34.3162 58.9984 33.315 59.0414 32.3138C59.2024 32.0662 59.3635 31.8185 59.5354 31.5709C59.5561 31.9082 59.6824 32.2303 59.8965 32.4912C60.1105 32.7522 60.4013 32.9388 60.7273 33.0243C61.3298 33.1284 61.949 33.0689 62.5207 32.8521L64.2604 32.3568L65.3987 32.5829C65.2641 33.5766 65.4604 34.587 65.9571 35.4574C66.1238 36.1185 66.5245 36.6963 67.0847 37.0831C67.2267 37.1263 67.3776 37.1314 67.5222 37.0979C67.6668 37.0644 67.8001 36.9934 67.9088 36.892C68.0175 36.7907 68.0977 36.6626 68.1416 36.5204C68.1854 36.3782 68.1913 36.227 68.1586 36.0819C68.2686 36.1697 68.3973 36.2312 68.5347 36.2616C68.6721 36.2921 68.8147 36.2906 68.9514 36.2574C69.0882 36.2241 69.2155 36.16 69.3238 36.0699C69.4321 35.9797 69.5184 35.866 69.5761 35.7374C69.85 35.1575 69.9363 34.5063 69.8231 33.8748C69.6565 32.3344 69.0401 30.8776 68.0512 29.6869L71.3587 32.3245C71.5737 32.5399 71.8525 32.6796 72.1534 32.7229C72.1503 32.843 72.1736 32.9624 72.2217 33.0724C72.2699 33.1825 72.3416 33.2806 72.4318 33.3597C72.522 33.4389 72.6285 33.4971 72.7437 33.5303C72.8589 33.5635 72.98 33.5709 73.0984 33.5519C73.5408 33.3905 73.9181 33.0879 74.1723 32.6906C74.8595 31.8401 75.5361 30.4297 74.7951 29.6008C74.8811 29.5537 74.9561 29.4889 75.015 29.4104C75.0739 29.332 75.1155 29.2419 75.1368 29.146C75.1582 29.0502 75.1588 28.9509 75.1388 28.8548C75.1188 28.7587 75.0785 28.668 75.0206 28.5887L78.7255 30.968C78.3604 30.7958 78.0167 31.3771 78.1349 31.8185C78.2806 32.2296 78.5656 32.5763 78.9403 32.7982C78.6771 33.3198 78.5867 33.9119 78.6825 34.4885C78.006 33.9717 77.1469 35.1022 77.4261 35.985C77.5722 36.3839 77.8417 36.7255 78.1953 36.9599C78.5489 37.1942 78.9679 37.3091 79.3913 37.2877C79.7351 37.3116 80.0755 37.2071 80.3472 36.9945C80.6188 36.7818 80.8023 36.4759 80.8625 36.1357C81.6357 36.2326 82.2907 35.0591 81.9363 34.2732C82.527 34.5962 82.9243 33.5626 82.8921 32.7982C82.8368 31.4714 82.5421 30.1655 82.0223 28.944C82.0365 28.968 82.0554 28.9888 82.078 29.0051C82.1005 29.0215 82.1262 29.033 82.1533 29.0391C82.1805 29.0451 82.2086 29.0455 82.2359 29.0403C82.2632 29.0351 82.2892 29.0243 82.3122 29.0086C82.3488 28.9663 82.3713 28.9136 82.3766 28.8579L84.5781 33.1643C85.2906 34.3693 85.768 35.6992 85.9849 37.0831C86.0493 37.6537 86.1781 38.4396 86.6614 38.4504C86.7942 38.4505 86.9232 38.4049 87.0265 38.3212C88.3993 37.3777 89.4076 35.9906 89.883 34.3916C90.0846 33.8347 90.2005 33.2502 90.2266 32.6583C90.0665 31.4309 89.8116 30.2179 89.4642 29.0301Z" fill="#272727"/>
<path d="M74.0864 27.5279C74.2934 27.2717 74.4237 26.9618 74.4622 26.6343C74.4768 26.4523 74.4495 26.2693 74.3824 26.0995C74.3154 25.9296 74.2105 25.7775 74.0756 25.6546C73.9006 25.501 73.6868 25.3987 73.4576 25.3588C73.2284 25.3189 72.9927 25.343 72.7763 25.4286L72.5078 25.547L72.6044 25.2671C72.6816 25.006 72.6766 24.7274 72.5902 24.4692C72.5037 24.211 72.3399 23.9859 72.1212 23.8244C71.867 23.6596 71.563 23.5898 71.2626 23.6272C70.9621 23.6646 70.6845 23.8068 70.4782 24.029L70.2419 23.8352C70.2797 23.7842 70.3053 23.7253 70.3171 23.6629C70.3381 23.5648 70.3384 23.4634 70.3181 23.3651C70.2977 23.2669 70.2572 23.174 70.199 23.0923C70.0561 22.9208 69.8517 22.8125 69.6298 22.7909C69.4078 22.7709 69.1841 22.8003 68.9747 22.877C68.7523 23.0102 68.5026 23.0911 68.2445 23.1139C67.9223 23.1139 67.7613 22.8555 67.5895 22.7694C67.4197 22.6529 67.2356 22.5588 67.0418 22.4895C66.6973 22.3685 66.3323 22.3173 65.9679 22.3387C65.426 22.3626 64.9016 22.5379 64.4537 22.8447C64.1316 23.06 64.0027 23.2323 63.9812 23.2215C64.0727 23.0332 64.2092 22.8705 64.3786 22.7478C64.8305 22.3859 65.3805 22.1684 65.9572 22.1234C66.3555 22.0895 66.7567 22.1334 67.1384 22.2526C67.3497 22.3252 67.5515 22.4228 67.7398 22.5433C67.9438 22.6617 68.1049 22.834 68.266 22.834C68.4829 22.7998 68.6909 22.723 68.8781 22.6079C69.1352 22.5121 69.4104 22.4754 69.6835 22.5002C69.9792 22.5302 70.2521 22.6728 70.446 22.8986C70.5457 23.0202 70.6175 23.1623 70.6565 23.3149C70.6954 23.4674 70.7006 23.6266 70.6715 23.7814C70.6395 23.8794 70.5963 23.9733 70.5426 24.0613L70.3064 23.8675C70.5623 23.5905 70.9087 23.4143 71.2829 23.3709C71.657 23.3275 72.0344 23.4196 72.3467 23.6306C72.6124 23.8292 72.8085 24.107 72.9069 24.4242C73.0053 24.7414 73.0009 25.0817 72.8944 25.3963L72.7226 25.2348C72.9829 25.1367 73.2653 25.113 73.5383 25.1662C73.8113 25.2194 74.0642 25.3475 74.269 25.5362C74.4212 25.6828 74.5358 25.8641 74.6031 26.0647C74.6704 26.2652 74.6884 26.4791 74.6555 26.6882C74.6299 26.9502 74.525 27.1981 74.3548 27.3987C74.2726 27.4556 74.1821 27.4992 74.0864 27.5279Z" fill="#8F8F8F"/>
<path d="M81.668 28.8093C81.9061 28.5629 82.0764 28.2587 82.162 27.9265C82.2461 27.5601 82.1885 27.1754 82.0009 26.8499C81.8689 26.6341 81.6865 26.4537 81.4695 26.3243C81.2525 26.1949 81.0073 26.1203 80.7552 26.1071H80.5404L80.6693 25.924C80.8596 25.6958 80.993 25.4254 81.0583 25.1352C81.1237 24.845 81.1192 24.5434 81.0451 24.2553C80.992 24.1085 80.9049 23.9763 80.791 23.8697C80.6772 23.763 80.5398 23.6849 80.3901 23.6416C80.2439 23.5788 80.082 23.5626 79.9263 23.5953C79.7706 23.6281 79.6288 23.7082 79.5202 23.8247L78.747 24.8044L79.2733 23.6739C79.3682 23.47 79.4175 23.2477 79.4175 23.0226C79.4175 22.7975 79.3682 22.5752 79.2733 22.3713C79.1749 22.1591 79.0251 21.975 78.8375 21.8358C78.6499 21.6966 78.4305 21.6068 78.1994 21.5746C77.8589 21.5184 77.5094 21.5831 77.2114 21.7576L76.8785 21.9621L76.9859 21.5853C77.147 21.0578 76.5778 20.5087 76.0516 20.5087C75.4995 20.4766 74.9521 20.6279 74.4945 20.9394L74.2153 21.1224L74.2797 20.7994C74.3158 20.5955 74.2925 20.3855 74.2125 20.1945C74.1325 20.0035 73.9992 19.8398 73.8287 19.7228C73.5141 19.4982 73.1408 19.371 72.7548 19.3568C72.1141 19.3058 71.4694 19.3752 70.8541 19.5613C70.3083 19.739 69.7856 19.9811 69.297 20.2827C69.297 20.2827 69.4043 20.1535 69.6513 19.9812C70.5748 19.3685 71.6706 19.0703 72.7763 19.1307C73.2015 19.1484 73.6137 19.2824 73.9683 19.5183C74.1687 19.6634 74.3262 19.86 74.4245 20.0873C74.5228 20.3147 74.5581 20.5644 74.5267 20.8102L74.3227 20.6702C74.8127 20.2848 75.418 20.0762 76.0409 20.0781C76.389 20.1074 76.7141 20.2646 76.9537 20.5195C77.0936 20.6565 77.1935 20.8291 77.2427 21.0189C77.2919 21.2086 77.2885 21.4082 77.2329 21.5961L77.0074 21.4238C77.3697 21.2207 77.7881 21.1414 78.1994 21.1978C78.4829 21.2355 78.7524 21.3439 78.9832 21.5132C79.2139 21.6825 79.3986 21.9072 79.5202 22.1667C79.6365 22.4104 79.6969 22.6771 79.6969 22.9472C79.6969 23.2174 79.6365 23.4841 79.5202 23.7278L79.284 23.5663C79.431 23.4075 79.6224 23.2968 79.8331 23.2488C80.0439 23.2008 80.2642 23.2176 80.4652 23.2971C80.6535 23.3576 80.8251 23.461 80.9667 23.5993C81.1084 23.7375 81.2161 23.9068 81.2814 24.0938C81.3697 24.4215 81.3757 24.7661 81.2989 25.0967C81.2221 25.4274 81.0648 25.7338 80.8411 25.9886L80.7552 25.8056C81.0417 25.8282 81.3183 25.9217 81.56 26.0776C81.8018 26.2335 82.0012 26.4471 82.1405 26.6992C82.247 26.887 82.3143 27.0945 82.3383 27.3092C82.3623 27.5239 82.3425 27.7413 82.2801 27.948C82.1992 28.2007 82.0635 28.4324 81.8828 28.6263C81.7539 28.777 81.668 28.8201 81.668 28.8093Z" fill="#8F8F8F"/>
<path d="M97.7759 28.8128C97.7623 28.6567 97.7149 28.5056 97.637 28.3699C97.5591 28.2341 97.4526 28.1171 97.3249 28.0268C97.0293 27.8147 96.6662 27.7189 96.3047 27.7577C95.8163 27.8304 95.3441 27.987 94.9087 28.2206L94.7476 28.296V28.113C94.7194 27.8159 94.5896 27.5379 94.3802 27.3259C94.1707 27.114 93.8946 26.9812 93.5986 26.9502C92.8687 26.9152 92.1446 27.0948 91.5153 27.467L90.6132 27.8976L91.3542 27.2409C91.441 27.1281 91.5047 26.9992 91.5415 26.8616C91.5783 26.724 91.5874 26.5804 91.5685 26.4392C91.5495 26.298 91.5027 26.162 91.4309 26.039C91.3591 25.9161 91.2637 25.8086 91.1502 25.7229C90.8698 25.5472 90.5561 25.4317 90.229 25.3835C89.9019 25.3353 89.5683 25.3556 89.2494 25.443H89.1635L88.5836 25.5507L89.0453 25.1739C89.1634 25.0462 89.2511 24.8933 89.3017 24.7268C89.3524 24.5603 89.3648 24.3844 89.3379 24.2124C89.3111 24.0404 89.2456 23.8767 89.1466 23.7337C89.0476 23.5907 88.9175 23.4721 88.7662 23.3867C88.4495 23.2522 88.1004 23.2142 87.7624 23.2774C87.4244 23.3405 87.1124 23.5021 86.8654 23.742L86.2962 24.2803L86.6506 23.5697C86.8504 23.1529 86.9339 22.6896 86.8923 22.229C86.8507 21.7684 86.6856 21.3277 86.4144 20.9536C86.1993 20.6604 85.9199 20.4206 85.5978 20.2526C85.2757 20.0846 84.9195 19.9929 84.5566 19.9847C84.076 19.9562 83.5968 20.0605 83.1713 20.2861C82.8706 20.4368 82.7417 20.566 82.7202 20.5553L82.8169 20.4476C82.9114 20.3539 83.0158 20.2709 83.1283 20.2C83.5605 19.9339 84.0603 19.7993 84.5673 19.8124C84.9611 19.8119 85.3498 19.9019 85.7034 20.0755C86.0571 20.2491 86.3665 20.5016 86.6077 20.8136C86.9099 21.2242 87.0963 21.7087 87.1473 22.2164C87.1983 22.7241 87.112 23.2362 86.8976 23.6989L86.6828 23.5374C86.9655 23.2504 87.3292 23.0573 87.7248 22.9842C88.1204 22.911 88.5288 22.9613 88.895 23.1283C89.0955 23.2352 89.2674 23.3887 89.3964 23.5761C89.5253 23.7634 89.6075 23.9791 89.636 24.2049C89.688 24.4306 89.6775 24.6662 89.6055 24.8863C89.5336 25.1065 89.403 25.3027 89.2279 25.4538L89.1098 25.1846H89.2064C89.5684 25.0866 89.9469 25.0666 90.3172 25.126C90.6874 25.1854 91.0408 25.3228 91.3542 25.5291C91.6432 25.7681 91.8343 26.1053 91.8911 26.4765C91.9293 26.6588 91.9197 26.8478 91.8632 27.0251C91.8067 27.2025 91.7053 27.3622 91.5689 27.4885L91.4186 27.2517C92.1004 26.8635 92.8806 26.6838 93.663 26.7349C94.0167 26.778 94.3437 26.9456 94.5856 27.2078C94.8275 27.4701 94.9686 27.8099 94.9839 28.1668L94.8335 28.0591C95.2965 27.8342 95.7938 27.6887 96.3047 27.6285C96.6946 27.6068 97.0782 27.7337 97.3786 27.9838C97.5765 28.14 97.7134 28.361 97.7652 28.6082C97.8082 28.7266 97.7867 28.8128 97.7759 28.8128Z" fill="#8F8F8F"/>
<path d="M88.0895 14.2861C88.0895 14.2861 87.9714 14.383 87.7029 14.4584C87.3272 14.5557 86.9417 14.6098 86.5539 14.6199C85.9778 14.6098 85.4087 14.7468 84.9001 15.0182C84.7598 15.0993 84.6395 15.2111 84.5484 15.3453C84.4573 15.4796 84.3976 15.6327 84.3739 15.7934C84.3373 15.958 84.3552 16.1301 84.4249 16.2836C84.4947 16.4371 84.6125 16.5636 84.7605 16.6439L84.5672 16.8054C84.4705 16.4286 83.9766 16.224 83.4933 16.0087C83.0376 15.7739 82.5487 15.6105 82.0436 15.5242C81.7981 15.4818 81.5465 15.4904 81.3044 15.5497C81.0624 15.609 80.8352 15.7176 80.6368 15.8687C80.4493 15.9937 80.3006 16.169 80.2076 16.3745C80.1146 16.5801 80.081 16.8077 80.1106 17.0315L80.1965 17.3867L79.8958 17.1714C79.3108 16.743 78.6013 16.5198 77.877 16.5362C77.304 16.5312 76.7377 16.6602 76.2232 16.913C75.7713 17.1581 75.3616 17.4744 75.0097 17.8497C75.0608 17.7175 75.1375 17.5968 75.2352 17.4944C75.4892 17.1976 75.7949 16.9496 76.1373 16.7623C76.6694 16.4727 77.2612 16.3105 77.8662 16.2886C78.6349 16.2635 79.3901 16.4945 80.014 16.9453L79.7992 17.0853C79.7535 16.8098 79.7868 16.5269 79.8951 16.2696C80.0035 16.0123 80.1825 15.7912 80.4113 15.6319C80.6406 15.4585 80.9022 15.3329 81.1807 15.2626C81.4593 15.1924 81.749 15.1788 82.0328 15.2228C82.5724 15.3115 83.0944 15.486 83.5792 15.7395C83.8148 15.8489 84.0443 15.9711 84.2665 16.1056C84.511 16.2431 84.6922 16.4711 84.7712 16.7408L84.8357 17.0207L84.5779 16.9023C84.378 16.7923 84.2182 16.6213 84.1217 16.4142C84.0252 16.2071 83.9969 15.9746 84.041 15.7503C84.0719 15.5545 84.147 15.3684 84.2605 15.206C84.374 15.0437 84.523 14.9095 84.6961 14.8137C85.2445 14.5381 85.8555 14.4119 86.4679 14.4476C86.8486 14.447 87.2288 14.4218 87.6062 14.3723C87.7635 14.3251 87.9257 14.2962 88.0895 14.2861Z" fill="#8F8F8F"/>
<path d="M72.7547 9.80035C72.4905 9.82989 72.2309 9.89134 71.9815 9.98337C71.7052 10.1026 71.462 10.2874 71.2727 10.5217C71.0171 10.8212 70.8796 11.2041 70.8861 11.5983V11.7705H70.725C70.4912 11.7431 70.2552 11.7993 70.0587 11.9293C69.8623 12.0593 69.7179 12.2547 69.6512 12.4811C69.5209 13.0306 69.5507 13.606 69.7371 14.139L69.8767 14.7204L69.4686 14.2682L69.4042 14.2036C69.2629 14.0684 69.0928 13.9671 68.9068 13.9074C68.7208 13.8477 68.5236 13.8312 68.3303 13.8591C67.9605 13.9023 67.6218 14.0875 67.3853 14.3759C67.1871 14.6305 67.0445 14.9241 66.9668 15.2375C66.8891 15.551 66.878 15.8773 66.9343 16.1953C67.0171 16.6399 67.1693 17.0686 67.3853 17.4657C67.4771 17.6075 67.5527 17.7592 67.6108 17.9179C67.6108 17.9179 67.4712 17.7995 67.2779 17.5303C67.0209 17.1354 66.8355 16.698 66.7302 16.2384C66.6502 15.8859 66.6482 15.5201 66.7243 15.1667C66.8003 14.8133 66.9526 14.4809 67.1705 14.1929C67.3127 14.0125 67.4903 13.8633 67.6924 13.7545C67.8944 13.6458 68.1166 13.5798 68.3451 13.5606C68.5737 13.5414 68.8036 13.5695 69.0209 13.6431C69.2382 13.7166 69.4381 13.8341 69.6082 13.9883L69.6941 14.0852L69.4256 14.2144C69.232 13.6223 69.2134 12.9867 69.372 12.3842C69.4589 12.0986 69.6459 11.8541 69.8985 11.6958C70.1511 11.5375 70.4523 11.4761 70.7465 11.5229L70.5854 11.6413C70.6085 11.2578 70.7441 10.8896 70.9753 10.5831C71.2065 10.2766 71.523 10.0455 71.8848 9.91877C72.0812 9.84991 72.2892 9.82063 72.4969 9.83264C72.6902 9.76805 72.7547 9.78958 72.7547 9.80035Z" fill="#8F8F8F"/>
<path d="M60.4587 20.0347C60.4587 20.0347 60.3083 20.0347 60.0506 20.0347C59.6949 19.9207 59.3686 19.7295 59.0949 19.4749C58.6804 19.0903 58.3953 18.5862 58.2787 18.0322C58.2787 17.7411 58.1845 17.4577 58.0103 17.2248C57.8277 17.031 57.4519 16.9233 57.1941 16.6004C56.9617 16.2948 56.8545 15.9117 56.8944 15.5295C56.9343 15.1473 57.1184 14.7948 57.4089 14.5441V14.7594C56.8136 14.318 56.3254 13.7476 55.9807 13.0907C55.8288 12.8457 55.7334 12.5698 55.7014 12.2832C55.7014 12.2832 55.8518 12.5631 56.131 13.0045C56.5067 13.5883 56.9961 14.09 57.57 14.4795L57.7203 14.5871L57.5807 14.7055C57.3575 14.9132 57.2187 15.1962 57.1909 15.5003C57.1632 15.8043 57.2484 16.1079 57.4304 16.3527C57.6022 16.6004 57.9458 16.6972 58.2251 16.9664C58.4358 17.2416 58.5525 17.5776 58.558 17.9246C58.6481 18.4318 58.8874 18.9005 59.2452 19.2703C59.5967 19.6012 60.0088 19.8608 60.4587 20.0347Z" fill="#8F8F8F"/>
<path d="M56.8291 23.0095C56.8291 23.0095 56.7432 23.0095 56.5821 23.0741C56.3428 23.0962 56.102 23.0962 55.8626 23.0741C54.9942 22.9743 54.1809 22.5968 53.5431 21.9975H53.7364C53.5431 22.2801 53.2953 22.521 53.0075 22.706C52.7198 22.8909 52.398 23.0161 52.0611 23.0741C51.6859 23.1544 51.298 23.1544 50.9228 23.0741C50.5139 22.9884 50.153 22.7497 49.9134 22.4066C49.85 22.2706 49.7962 22.1303 49.7523 21.9867C49.7101 21.877 49.6351 21.783 49.5375 21.7176C49.3207 21.5873 49.0794 21.503 48.8288 21.47C48.5479 21.4354 48.2753 21.3515 48.0234 21.2224C47.8893 21.1577 47.7742 21.0592 47.6895 20.9365C47.6048 20.8138 47.5533 20.6712 47.5401 20.5226L47.7334 20.641C47.1678 20.9232 46.5198 20.992 45.9078 20.8348C45.4414 20.7291 45.0092 20.5069 44.6514 20.1888C44.4172 19.9831 44.224 19.7347 44.0822 19.4567C44.0286 19.3606 43.9956 19.2542 43.9856 19.1445C44.1877 19.4896 44.4453 19.7988 44.748 20.0596C45.1031 20.337 45.5192 20.5252 45.9615 20.6087C46.5172 20.7381 47.1008 20.6617 47.6045 20.3934L47.8086 20.2965V20.5118C47.8237 20.6127 47.8642 20.7082 47.9262 20.7891C47.9882 20.8701 48.0697 20.934 48.163 20.9747C48.3904 21.081 48.6333 21.15 48.8825 21.1793C49.1801 21.2181 49.4658 21.3209 49.7201 21.4807C49.8597 21.5764 49.968 21.7112 50.0315 21.8683C50.0959 22.0298 50.1174 22.159 50.1711 22.2559C50.3781 22.5269 50.6754 22.7141 51.0087 22.7834C51.338 22.8528 51.6781 22.8528 52.0074 22.7834C52.6167 22.6794 53.1607 22.339 53.5216 21.836L53.6182 21.7176L53.7256 21.8253C54.3161 22.3942 55.0651 22.7696 55.8734 22.9019C56.4747 23.031 56.8291 22.9772 56.8291 23.0095Z" fill="#8F8F8F"/>
<path d="M33.9557 34.2879C33.9557 34.2879 33.9557 34.2879 33.9557 34.191C33.9219 34.0892 33.8967 33.9848 33.8805 33.8787C33.7971 33.4812 33.7971 33.0705 33.8805 32.673C34.0197 32.0613 34.24 31.4711 34.5356 30.9181C34.7007 30.5631 34.8984 30.2243 35.1262 29.9061C35.258 29.7297 35.422 29.5799 35.6095 29.4647C35.716 29.3933 35.8387 29.3499 35.9663 29.3386C36.094 29.3274 36.2224 29.3485 36.3397 29.4001L36.1679 29.5401C36.0921 29.1487 36.1346 28.7436 36.2899 28.3765C36.4452 28.0095 36.7062 27.6973 37.0395 27.4799C37.3729 27.2625 37.7633 27.1498 38.161 27.1563C38.5586 27.1627 38.9452 27.288 39.2714 27.5161L39.0351 27.656C39.0134 27.4377 39.0439 27.2173 39.1242 27.0132C39.2045 26.8091 39.3323 26.6272 39.4969 26.4825C39.6688 26.335 39.8749 26.2331 40.0963 26.1861C40.3176 26.139 40.5472 26.1484 40.7641 26.2134C41.0032 26.2886 41.2181 26.4261 41.3869 26.6117L41.1292 26.7409C41.1083 26.607 41.1209 26.4701 41.1659 26.3423C41.2109 26.2145 41.2869 26.0999 41.3869 26.0088C41.5605 25.8292 41.7858 25.7087 42.0312 25.6643C42.479 25.6268 42.929 25.7008 43.3414 25.8796L43.1695 25.955C43.4183 25.4511 43.8538 25.0647 44.383 24.8784C44.8553 24.7143 45.3607 24.6699 45.8542 24.7492C46.6868 24.932 47.4846 25.2483 48.2167 25.6859L48.0664 25.8366C48.0213 25.756 47.9975 25.6652 47.9975 25.5728C47.9975 25.4804 48.0213 25.3896 48.0664 25.309C48.1475 25.173 48.2671 25.0643 48.41 24.9968C48.649 24.8623 48.92 24.7953 49.194 24.803C49.6123 24.8296 50.0247 24.9166 50.4182 25.0614C50.6662 25.1502 50.9038 25.2657 51.1269 25.4059C51.2106 25.4467 51.2869 25.5013 51.3525 25.5674C51.3525 25.5674 51.0195 25.3844 50.386 25.1799C49.9996 25.0582 49.5987 24.9894 49.194 24.9753C48.9518 24.9776 48.7145 25.0445 48.5067 25.1691C48.2919 25.2875 48.1094 25.5244 48.2382 25.7289L48.4315 26.0519L48.0879 25.8796C47.3774 25.4694 46.6047 25.1785 45.8005 25.0184C45.3493 24.9486 44.8879 24.993 44.4582 25.1476C43.9993 25.2906 43.6141 25.6073 43.3843 26.0304L43.3306 26.1488H43.2125C42.8441 25.9882 42.4428 25.918 42.042 25.9442C41.6876 25.9442 41.3225 26.3318 41.3869 26.6763L41.4728 27.2038L41.1185 26.8055C40.9887 26.6593 40.8216 26.5514 40.6352 26.4933C40.468 26.4455 40.2917 26.4392 40.1214 26.4748C39.9512 26.5104 39.7922 26.587 39.658 26.6978C39.5288 26.8102 39.4283 26.9519 39.3648 27.1111C39.3013 27.2702 39.2767 27.4423 39.2929 27.613V27.9359L39.0244 27.7529C38.7317 27.5525 38.3855 27.4453 38.0311 27.4453C37.6766 27.4453 37.3304 27.5525 37.0377 27.7529C36.7803 27.9504 36.5799 28.2131 36.4572 28.5139C36.3345 28.8148 36.294 29.1429 36.3397 29.4647V29.7016L36.1249 29.5939C35.7813 29.4324 35.4162 29.7339 35.1907 30.0245C34.9661 30.3259 34.7684 30.6465 34.6 30.9827C34.2989 31.5152 34.0645 32.0829 33.902 32.673C33.8103 33.2093 33.8286 33.7588 33.9557 34.2879Z" fill="#8F8F8F"/>
<path d="M36.3826 42.9506C36.3227 42.8954 36.2687 42.834 36.2215 42.7676C36.0726 42.587 35.9363 42.3964 35.8135 42.197C35.6091 41.8741 35.4942 41.5025 35.4806 41.1204C35.4814 40.8767 35.5403 40.6368 35.6524 40.4206C35.7769 40.1595 35.9957 39.9555 36.2645 39.85V40.0223C36.1025 39.8145 35.9999 39.5665 35.9678 39.3048C35.9356 39.0431 35.9751 38.7775 36.082 38.5366C36.2143 38.2598 36.4318 38.0329 36.7025 37.8895C36.9732 37.746 37.2827 37.6936 37.5854 37.7399L37.4565 37.966C37.3047 37.7775 37.2166 37.5456 37.2051 37.3036C37.1935 37.0617 37.259 36.8224 37.3921 36.6202C37.5336 36.421 37.7161 36.2544 37.9273 36.1319C38.1385 36.0093 38.3734 35.9335 38.6163 35.9097C38.8426 35.9046 39.0685 35.8866 39.2928 35.8558C39.4754 35.8558 39.5828 35.6728 39.6687 35.4575C39.7487 35.2174 39.8607 34.9893 40.0016 34.7792C40.1703 34.5569 40.4085 34.3977 40.6781 34.3271C41.1993 34.2061 41.7325 34.1447 42.2674 34.144C42.5004 34.1537 42.7329 34.1158 42.9507 34.0325C43.1686 33.9492 43.3673 33.8223 43.5346 33.6596C43.6704 33.4638 43.7924 33.2587 43.8998 33.0459C44.1069 32.73 44.4207 32.4994 44.7836 32.3966C45.1465 32.2938 45.5342 32.3256 45.8757 32.4861L45.7146 32.6906C45.5678 32.487 45.4888 32.2421 45.4888 31.9909C45.4888 31.7396 45.5678 31.4947 45.7146 31.2911C45.9754 30.9423 46.3598 30.7072 46.7885 30.6343C47.4496 30.5353 48.1233 30.5608 48.7751 30.7097C49.1901 30.7935 49.5964 30.916 49.9886 31.0758C50.1301 31.1246 50.2639 31.1935 50.3859 31.2803C50.3859 31.2803 49.806 31.0435 48.7429 30.8604C48.1104 30.7516 47.4639 30.7516 46.8314 30.8604C46.4642 30.923 46.1363 31.128 45.9186 31.431C45.8111 31.5898 45.7535 31.7774 45.7535 31.9693C45.7535 32.1613 45.8111 32.3488 45.9186 32.5076L46.273 32.9598L45.7575 32.7122C45.5774 32.6221 45.3789 32.5753 45.1777 32.5753C44.9764 32.5753 44.7779 32.6221 44.5978 32.7122C44.4124 32.8176 44.2543 32.9651 44.136 33.1428C44.0237 33.362 43.8981 33.5741 43.7601 33.778C43.5779 33.9878 43.3449 34.1472 43.0836 34.2409C42.8288 34.3188 42.5656 34.3658 42.2997 34.3809C41.7866 34.382 41.2752 34.4397 40.7748 34.5532C40.5624 34.6046 40.3734 34.7259 40.2378 34.8977C40.1076 35.0845 40.0096 35.2919 39.9479 35.5113C39.9025 35.6453 39.8264 35.7667 39.7256 35.8658C39.6249 35.9649 39.5024 36.0389 39.368 36.0819C39.1331 36.1165 38.8965 36.1381 38.6592 36.1465C38.4493 36.1507 38.2432 36.2034 38.057 36.3005C37.8707 36.3976 37.7093 36.5365 37.5854 36.7064C37.4804 36.8541 37.424 37.031 37.424 37.2124C37.424 37.3937 37.4804 37.5706 37.5854 37.7184L37.8431 38.009L37.4565 37.9444C37.2118 37.9085 36.962 37.9505 36.7424 38.0645C36.5228 38.1784 36.3443 38.3586 36.2323 38.5796C36.1396 38.7801 36.1027 39.002 36.1254 39.2218C36.1481 39.4416 36.2295 39.6512 36.3611 39.8285L36.4578 39.9469H36.3075C36.1008 40.0387 35.9261 40.1902 35.8056 40.3819C35.6851 40.5736 35.6243 40.797 35.6309 41.0235C35.6157 41.4008 35.7088 41.7744 35.8994 42.1001C36.0755 42.3748 36.2368 42.6587 36.3826 42.9506Z" fill="#8F8F8F"/>
<path d="M35.4484 59.2816C35.3437 59.2805 35.2407 59.2547 35.1477 59.2062C34.8738 59.1016 34.625 58.9402 34.4175 58.7325C34.0833 58.3985 33.8682 57.9633 33.8054 57.4944C33.7649 57.1885 33.7859 56.8776 33.867 56.5799C33.9482 56.2823 34.0879 56.0039 34.2779 55.7611V55.9226C33.883 55.514 33.5728 55.031 33.3651 54.5015C33.2794 54.1842 33.2794 53.8498 33.3651 53.5326C33.4119 53.361 33.4931 53.2009 33.6039 53.062C33.7148 52.9231 33.8527 52.8085 34.0094 52.7251V52.9943C33.7434 52.8428 33.522 52.6237 33.3674 52.3591C33.2128 52.0945 33.1305 51.7937 33.1289 51.487C33.107 51.1351 33.1852 50.7842 33.3544 50.475C33.5175 50.179 33.7691 49.9417 34.0739 49.7968C34.3531 49.6353 34.4712 49.4953 34.4497 49.2046C34.4337 48.8977 34.4775 48.5905 34.5786 48.3003C34.7928 47.7863 35.1415 47.3399 35.588 47.0084C35.9746 46.6854 36.3183 46.3732 36.6619 46.104C37.1753 45.6492 37.774 45.3015 38.4231 45.0813C38.6022 45.0317 38.7856 44.9993 38.9708 44.9844C39.0996 44.9844 39.164 44.9844 39.164 44.9844C39.164 44.9844 38.8956 44.9844 38.4553 45.1674C37.845 45.4257 37.2851 45.7902 36.8015 46.244L35.7276 47.1806C35.3175 47.4877 34.9982 47.9008 34.8041 48.3757C34.721 48.6362 34.6882 48.9102 34.7075 49.1831C34.719 49.3598 34.6778 49.5359 34.5893 49.6891C34.4819 49.8273 34.3465 49.941 34.192 50.0229C33.9313 50.1537 33.716 50.3604 33.5742 50.6158C33.4325 50.8713 33.3708 51.1636 33.3973 51.4547C33.3963 51.7081 33.4624 51.9572 33.5888 52.1766C33.7152 52.396 33.8974 52.5778 34.1168 52.7036L34.3853 52.8435L34.1061 52.9727C33.8752 53.1183 33.7006 53.3383 33.6108 53.5965C33.5211 53.8548 33.5215 54.1359 33.6121 54.3938C33.7993 54.8938 34.084 55.3513 34.4497 55.7396L34.5142 55.8257L34.4497 55.9011C34.1006 56.338 33.935 56.8941 33.988 57.4514C34.0343 57.8802 34.2148 58.2834 34.5034 58.6033C34.7748 58.885 35.095 59.1148 35.4484 59.2816Z" fill="#8F8F8F"/>
<path d="M60.6199 32.7842C60.2963 32.7549 59.982 32.6597 59.6964 32.5043C59.3653 32.356 59.0689 32.1396 58.8266 31.8691C58.675 31.6951 58.5613 31.4912 58.4929 31.2706C58.4244 31.05 58.4028 30.8174 58.4293 30.5879C58.4444 30.4758 58.477 30.3668 58.5259 30.2649L58.6011 30.4695C58.4036 30.3849 58.2276 30.2568 58.0863 30.0946C57.945 29.9325 57.842 29.7405 57.7849 29.5329C57.7353 29.369 57.7193 29.1968 57.7377 29.0266C57.7562 28.8564 57.8088 28.6917 57.8923 28.5424C58.1715 28.0364 58.5581 27.9503 58.5581 27.9826C58.5581 28.0149 58.2682 28.1763 58.0749 28.6285C57.9712 28.8951 57.9712 29.1909 58.0749 29.4575C58.1283 29.6212 58.2165 29.7714 58.3333 29.8977C58.45 30.0241 58.5927 30.1236 58.7514 30.1896H58.891L58.8266 30.3295C58.7954 30.4092 58.7737 30.4923 58.7622 30.5771C58.7413 30.7691 58.759 30.9633 58.8143 31.1482C58.8697 31.3331 58.9615 31.505 59.0843 31.6537C59.2904 31.9034 59.5418 32.1117 59.8253 32.2674C60.1065 32.413 60.3726 32.5861 60.6199 32.7842Z" fill="#8F8F8F"/>
<path d="M67.3208 28.891C67.4633 28.5511 67.5043 28.1771 67.4389 27.8144C67.3867 27.6142 67.2872 27.4295 67.1489 27.2759C67.0107 27.1222 66.8376 27.0042 66.6443 26.9316C66.4005 26.8495 66.1383 26.8393 65.8889 26.9023C65.6395 26.9653 65.4134 27.0987 65.2375 27.2869L65.0657 27.4806L64.9905 27.2223C64.9082 26.9138 64.7659 26.6248 64.5717 26.3717C64.4828 26.2384 64.3653 26.1267 64.2278 26.0448C64.0904 25.9628 63.9363 25.9127 63.777 25.898C63.2938 25.898 62.7891 26.361 62.9609 26.7486L62.6817 26.8347C62.5567 26.2528 62.2148 25.7406 61.7259 25.4028C61.3364 25.1394 60.8748 25.004 60.4051 25.0152C59.972 25.0506 59.5493 25.1675 59.1594 25.3597C59.1594 25.3597 59.2453 25.2521 59.4386 25.1337C59.81 24.9198 60.233 24.8127 60.6611 24.8241C61.0893 24.8355 61.506 24.9649 61.8655 25.1983C62.1388 25.3766 62.3743 25.6073 62.5586 25.877C62.7428 26.1467 62.8723 26.4502 62.9394 26.7701L62.6602 26.8562C62.6073 26.6997 62.6004 26.5312 62.6404 26.3708C62.6804 26.2105 62.7655 26.065 62.8857 25.9519C63.0004 25.8353 63.1377 25.7437 63.2892 25.6826C63.4407 25.6215 63.6031 25.5922 63.7663 25.5966C63.9769 25.6087 64.1822 25.667 64.3677 25.7675C64.5533 25.8679 64.7146 26.0081 64.8402 26.178C65.0506 26.4693 65.2036 26.7981 65.2912 27.1469H65.0549C65.2704 26.9218 65.5471 26.7651 65.8507 26.6962C66.1542 26.6273 66.4712 26.6492 66.7624 26.7593C66.9875 26.8486 67.1859 26.9946 67.3383 27.1832C67.4907 27.3718 67.5919 27.5966 67.6322 27.8359C67.704 28.136 67.6699 28.4518 67.5356 28.7295C67.4175 28.8264 67.3316 28.9017 67.3208 28.891Z" fill="#8F8F8F"/>
<path d="M50.3753 48.9287C50.1928 48.8426 42.9763 46.6464 43.1267 54.0426C43.277 61.4388 50.6438 59.7701 50.6438 59.5547C50.6438 59.3394 50.3753 48.9287 50.3753 48.9287Z" fill="#C78976"/>
<path d="M48.3562 56.7664C48.3562 56.7664 48.2273 56.8525 48.0126 56.9602C47.8614 57.0244 47.6989 57.0575 47.5347 57.0575C47.3705 57.0575 47.208 57.0244 47.0568 56.9602C46.576 56.6643 46.181 56.2471 45.9115 55.7502C45.642 55.2533 45.5074 54.6941 45.5212 54.1287C45.4891 53.4951 45.5992 52.8623 45.8433 52.277C45.908 52.0428 46.0289 51.8281 46.1955 51.6516C46.3621 51.4752 46.5694 51.3424 46.7991 51.2649C46.9451 51.2234 47.1009 51.234 47.24 51.2949C47.379 51.3558 47.4927 51.4631 47.5615 51.5987C47.6582 51.8032 47.6152 51.954 47.6582 51.9647C47.7011 51.9755 47.8193 51.8355 47.7441 51.5341C47.7002 51.3553 47.5982 51.1962 47.4542 51.0819C47.2462 50.9315 46.989 50.8661 46.7346 50.8989C46.4319 50.9667 46.1515 51.1111 45.9203 51.3184C45.689 51.5258 45.5147 51.789 45.4138 52.0832C45.1145 52.7294 44.9746 53.4384 45.0057 54.1502C45.0916 55.6359 45.8756 57.0247 46.9494 57.3047C47.1479 57.3614 47.3568 57.3715 47.5598 57.3341C47.7628 57.2968 47.9545 57.213 48.12 57.0893C48.3455 56.9386 48.3884 56.7771 48.3562 56.7664Z" fill="#8B5D54"/>
<path d="M48.0127 80.5437L50.4718 75.3438C50.4718 75.3438 52.5659 87.0356 57.1513 91.7726L62.5959 97.7154L62.8321 95.0885L76.8569 81.8464L76.6743 77.6046L82.5484 85.4099L93.5019 95.2931L77.5549 183.929L76.481 195.374L43.5453 190.927L34.7611 132.683C34.7611 132.683 31.969 102.065 32.216 102.474C32.463 102.883 35.4376 90.4161 35.4376 90.4161L45.9831 84.764L48.0127 80.5437Z" fill="white"/>
<path d="M18.5134 92.9473C18.5134 92.9473 12.3601 97.9857 10.1586 109.172C7.95721 120.357 -0.000183105 161.365 -0.000183105 164.961C-0.000183105 164.961 3.6832 182.294 8.29012 193.017C12.4353 202.706 17.2033 211.319 17.6543 210.878L28.2427 197.959L20.8007 161.677L21.4236 158.749L23.421 153.366L26.7715 136.226L18.5134 92.9473Z" fill="#299BFF"/>
<path d="M22.4866 179.301L24.2478 157.661L23.6357 152.375L20.2745 120.842L18.5133 92.9901L41.3438 84.6573L43.556 83.8498L47.9696 79.3389L49.3657 124.254C49.3657 124.254 50.0315 160.687 49.5912 163.658C49.1509 166.629 44.9735 209.015 30.2615 222.774C30.2615 222.774 24.3981 229.89 22.1 228.351C19.8019 226.811 14.1212 201.199 14.1212 201.199L22.4866 179.301Z" fill="#299BFF"/>
<path d="M44.0287 83.3242C44.0287 83.3242 43.9428 83.4965 43.728 83.8087L42.783 85.1437L39.1533 90.1068H39.0996L35.9639 91.2695L36.0928 91.0434C37.5855 98.375 39.6581 108.56 41.9454 119.832C44.0932 130.942 46.1335 140.987 47.5832 148.34L49.2263 156.953C49.3981 157.929 49.5377 158.715 49.6451 159.31C49.7052 159.583 49.7411 159.86 49.7525 160.139C49.6504 159.879 49.5784 159.608 49.5377 159.332C49.3981 158.751 49.2263 157.975 49.0115 156.996C48.5712 154.907 47.9376 151.979 47.1966 148.383C45.7039 141.041 43.6529 131.007 41.3977 119.907C39.1748 108.624 37.1559 98.4289 35.7062 91.0865V90.925H35.8351L38.9923 89.8484L38.9171 89.913L42.6649 85.0468C43.0944 84.5192 43.4273 84.0886 43.6851 83.7656C43.7853 83.6078 43.9004 83.46 44.0287 83.3242Z" fill="#272727"/>
<path d="M77.7806 79.083L84.095 84.9828L106.206 96.9222L99.7628 124.375L97.5614 158.084L100.654 179.336L108.279 219.396C108.279 219.396 81.507 226.674 78.382 225.037C75.257 223.401 75.6866 218.75 75.5792 218.427C75.4718 218.104 70.7146 177.85 70.7146 177.85L69.7481 162.272C69.7481 162.272 69.3185 135.551 71.1549 129.597C72.9912 123.643 75.6866 104.178 76.6531 98.7632C77.6196 93.3479 78.7256 89.709 79.3807 86.9745C79.7635 85.4632 80.015 83.9215 80.1324 82.3666L77.7806 79.083Z" fill="#299BFF"/>
<path d="M20.1029 224.088C20.0391 223.962 19.9921 223.828 19.9633 223.689L19.6197 222.494C19.319 221.418 18.8894 219.857 18.3632 217.908L13.9066 201.221V201.156V201.092L22.2399 179.204V179.28C22.5836 174.973 22.9487 170.527 23.3138 165.919C23.55 163.066 23.7756 160.267 23.9903 157.597C22.6802 142.902 21.2412 129.939 20.3714 120.627C19.9204 115.976 19.5875 112.229 19.3727 109.656C19.2868 108.397 19.2116 107.406 19.1579 106.696C19.1579 106.383 19.1579 106.125 19.1579 105.931C19.144 105.842 19.144 105.751 19.1579 105.662C19.1667 105.748 19.1667 105.835 19.1579 105.92C19.1579 106.125 19.2116 106.373 19.2438 106.685C19.3297 107.395 19.4264 108.386 19.566 109.635C19.8452 112.251 20.2318 115.976 20.7257 120.595C21.703 129.896 23.1957 142.848 24.5273 157.554C24.3125 160.224 24.087 163.023 23.8615 165.876C23.4856 170.484 23.1205 174.973 22.7876 179.237V179.312C19.6626 187.43 16.7847 194.88 14.3684 201.145V201.016C16.1511 207.993 17.5901 213.72 18.6639 217.747L19.8022 222.365C19.9204 222.871 20.017 223.27 20.0922 223.571C20.1095 223.743 20.1131 223.915 20.1029 224.088Z" fill="#272727"/>
<path d="M7.4097 159.377C8.06094 159.146 8.74835 159.032 9.43933 159.044C11.0938 158.959 12.7524 159.074 14.3791 159.388C16.0032 159.702 17.5854 160.204 19.0934 160.885C19.7393 161.119 20.339 161.465 20.8653 161.907C18.7037 161.134 16.5028 160.477 14.2718 159.937C12.0001 159.591 9.70723 159.404 7.4097 159.377Z" fill="#272727"/>
<path d="M69.7801 160.228C69.8135 159.95 69.871 159.677 69.9519 159.409C70.1023 158.828 70.3063 158.064 70.5641 157.105C71.1332 155.038 71.9386 152.164 72.9266 148.633L80.9377 120.727C84.1593 109.832 86.9943 99.9705 89.0669 92.8865V93.0802L84.1271 87.9233L82.7633 84.4675C82.6344 84.1122 82.527 83.8215 82.4304 83.5954C82.3887 83.4954 82.3598 83.3905 82.3444 83.2832C82.409 83.368 82.4597 83.4625 82.4948 83.5631L82.8921 84.4136C83.2358 85.2247 83.719 86.3336 84.3419 87.7403L89.3891 92.8003L89.4642 92.8865V92.9941C87.4346 100.089 84.6103 109.972 81.4961 120.889L73.3669 148.74L70.8433 157.159L70.1238 159.442C70.0278 159.711 69.913 159.974 69.7801 160.228Z" fill="#272727"/>
<path d="M96.8955 110.966C96.8276 110.165 96.9077 109.358 97.1318 108.587C97.9887 104.773 100.127 101.372 103.188 98.951C103.791 98.4239 104.477 98.0018 105.218 97.7021C105.347 97.8529 102.147 99.7585 99.8487 103.548C98.4964 105.857 97.5007 108.358 96.8955 110.966Z" fill="#272727"/>
<g opacity="0.3">
<path d="M96.7345 169.852L89.7543 165.105C87.3193 163.282 84.6545 161.791 81.8291 160.669C79.6814 159.905 77.3189 159.592 75.1067 158.893C72.8393 158.092 70.9215 156.523 69.6836 154.457C69.6836 155.534 69.7373 157.45 69.7803 158.527C70.0165 160.508 71.8636 161.541 73.657 162.402C75.4503 163.264 77.4477 163.888 78.8008 165.341C79.617 166.213 80.1324 167.312 80.8626 168.248C82.5609 170.141 84.7395 171.536 87.1663 172.285C90.9252 173.711 94.8344 174.701 98.8178 175.235C98.9815 175.281 99.1529 175.293 99.3211 175.269C99.4894 175.244 99.6508 175.185 99.795 175.095C99.8946 174.989 99.9717 174.864 100.022 174.727C100.071 174.59 100.093 174.444 100.085 174.299C100.128 172.361 98.3453 170.94 96.7345 169.852Z" fill="black"/>
</g>
<path d="M106.206 96.8916C106.206 96.8916 110.244 98.6142 111.876 105.989C113.508 113.364 122.668 158.107 122.496 162.693C122.325 167.279 120.209 170.725 116.128 172.2C112.064 173.76 107.648 174.158 103.371 173.352C97.9562 172.283 92.6124 170.881 87.37 169.153C85.4785 168.522 83.6517 167.711 81.9148 166.73C81.5283 163.432 81.743 160.09 82.5483 156.869C83.8907 152.067 88.9916 145.78 88.9916 145.78L101.878 149.752L98.4739 134.314L102.533 101.887L106.206 96.8916Z" fill="#299BFF"/>
<path d="M101.899 149.754C102.732 149.937 103.527 150.261 104.251 150.712C106.067 151.679 107.732 152.909 109.191 154.362C110.641 155.821 111.875 157.481 112.853 159.293C113.298 160.022 113.624 160.818 113.819 161.65C112.426 159.159 110.739 156.846 108.794 154.76C106.709 152.814 104.394 151.132 101.899 149.754Z" fill="#272727"/>
<path d="M118.147 155.918C118.062 155.918 117.449 155.121 116.236 154.001C113.034 151.051 108.836 149.428 104.488 149.458C102.834 149.458 101.814 149.695 101.792 149.598C101.771 149.501 102.029 149.469 102.49 149.35C103.143 149.198 103.808 149.101 104.477 149.06C106.698 148.932 108.921 149.281 110.996 150.083C113.072 150.885 114.954 152.122 116.515 153.711C116.988 154.188 117.412 154.711 117.782 155.272C117.943 155.462 118.067 155.681 118.147 155.918Z" fill="#272727"/>
<path d="M98.4952 134.327C98.5331 134.414 98.5619 134.504 98.5811 134.596C98.6348 134.812 98.7099 135.07 98.7851 135.393L99.5261 138.461C100.16 141.196 101.04 145.029 102.114 149.712L102.2 150.078L101.835 149.97L88.9484 146.041H89.1525C87.1947 147.205 85.5765 148.864 84.4596 150.853C83.2884 152.992 82.5306 155.333 82.226 157.754C81.9987 159.261 81.8981 160.784 81.9253 162.308C81.9226 163.785 82.0303 165.261 82.2475 166.722L82.1293 166.539C84.1611 167.745 86.3467 168.668 88.6263 169.284C90.774 169.941 92.9218 170.447 94.9836 170.931C97.0454 171.416 98.9355 171.9 100.686 172.417C102.309 172.856 103.964 173.166 105.636 173.343C108.03 173.601 110.449 173.521 112.821 173.106C113.648 172.945 114.281 172.783 114.711 172.676C114.925 172.607 115.144 172.553 115.366 172.514C115.171 172.626 114.961 172.709 114.743 172.762C114.125 172.978 113.493 173.154 112.853 173.289C110.472 173.795 108.027 173.933 105.604 173.698C103.908 173.545 102.227 173.254 100.578 172.826C98.8066 172.32 96.9058 171.868 94.8762 171.405C92.8466 170.942 90.6881 170.436 88.433 169.79C86.0977 169.168 83.8577 168.23 81.775 167.002L81.6783 166.937V166.819C81.4587 165.329 81.3474 163.825 81.3454 162.319C81.3179 160.766 81.4184 159.214 81.6461 157.679C81.9654 155.186 82.7486 152.776 83.9549 150.573C85.1284 148.504 86.8248 146.781 88.8733 145.578L88.9699 145.524H89.0773L101.964 149.55L101.695 149.798C100.697 145.093 99.8697 141.239 99.2898 138.504C99.0321 137.202 98.8173 136.168 98.667 135.404C98.6133 135.081 98.5596 134.822 98.5166 134.596C98.4982 134.508 98.491 134.417 98.4952 134.327Z" fill="#272727"/>
<path d="M62.9933 153.367C62.9933 153.367 63.3584 133.687 63.6054 132.911C63.8524 132.136 64.0135 131.673 65.7532 131.544C67.4928 131.415 79.5739 130.963 80.5512 131.318C81.2492 131.587 81.3995 132.265 81.3995 133.148C81.3995 137.002 80.5941 149.868 80.3256 154.551C80.2954 155.016 80.088 155.453 79.7462 155.769C79.4045 156.086 78.9545 156.258 78.4893 156.252L64.1638 156.047C63.8486 156.042 63.5482 155.912 63.3272 155.687C63.1063 155.461 62.9825 155.158 62.9826 154.842L62.9933 153.367Z" fill="#FF725E"/>
<path d="M66.6981 134.327H66.6444C66.0395 134.327 65.5491 134.819 65.5491 135.425V138.3C65.5491 138.906 66.0395 139.398 66.6444 139.398H66.6981C67.3031 139.398 67.7935 138.906 67.7935 138.3V135.425C67.7935 134.819 67.3031 134.327 66.6981 134.327Z" fill="#272727"/>
<path d="M81.163 138.294C81.163 138.294 82.3551 137.433 82.7846 138.294C83.2142 139.155 90.5165 149.717 90.5165 149.717C90.722 151.604 90.624 153.512 90.2265 155.369C89.6789 157.721 88.7308 159.961 87.4237 161.99L85.0505 159.837C85.0505 159.837 79.2193 160.816 78.1455 160.59C77.0716 160.364 70.929 157.608 69.5545 155.982C68.5079 154.841 67.3454 153.813 66.0859 152.914L60.0292 148.802C59.6427 148.546 59.3548 148.167 59.2131 147.725C59.1122 147.432 59.1091 147.114 59.2039 146.819C59.2988 146.524 59.4867 146.267 59.7393 146.088C59.982 145.875 60.2789 145.732 60.5974 145.677C60.9158 145.622 61.2432 145.656 61.5434 145.776C61.5434 145.776 61.1246 143.741 62.5313 143.419C63.9381 143.096 77.8555 148.069 77.8555 148.069C78.32 148.014 78.7442 147.778 79.0368 147.413C79.359 146.874 69.1142 144.064 68.8994 142.977C68.6847 141.89 69.5438 140.706 71.2727 140.706C73.0016 140.706 80.9375 142.439 80.9375 142.439L81.163 138.294Z" fill="#C78976"/>
<path d="M84.084 147.975C84.084 148.039 83.8477 148.265 83.3215 148.416C82.6159 148.588 81.8794 148.588 81.1738 148.416C80.2028 148.248 79.3006 147.803 78.575 147.135C79.5027 147.287 80.4129 147.532 81.2919 147.867C82.214 148.024 83.1525 148.06 84.084 147.975Z" fill="#8B5D54"/>
<path d="M84.2238 143.036C84.2238 143.187 83.4185 143.165 82.4949 143.036C81.5714 142.907 80.8519 142.573 80.8734 142.423C80.8948 142.272 81.6788 142.304 82.6023 142.487C83.5258 142.67 84.2561 142.886 84.2238 143.036Z" fill="#8B5D54"/>
<path d="M78.983 153.724C78.0448 153.61 77.1226 153.389 76.2339 153.067C71.8653 151.736 67.6885 149.84 63.8092 147.426C62.9797 146.971 62.208 146.418 61.5111 145.778C62.3782 146.146 63.2149 146.581 64.0132 147.081C65.5381 147.921 67.6644 149.04 70.0699 150.139C72.4754 151.237 74.7198 152.098 76.3521 152.69C77.2561 152.961 78.1361 153.307 78.983 153.724Z" fill="#8B5D54"/>
<path d="M76.1158 156.873C74.208 156.817 72.3322 156.366 70.6068 155.548C68.8162 154.894 67.1761 153.883 65.7851 152.577C65.8818 152.437 67.9328 153.858 70.8216 155.032C73.7103 156.205 76.1373 156.7 76.1158 156.873Z" fill="#8B5D54"/>
<path d="M88.8199 145.542C88.8199 145.542 89.0884 145.79 89.4213 146.328C89.8937 147.102 90.2552 147.94 90.4952 148.815C91.3029 151.735 91.083 154.845 89.8723 157.621C89.3062 159.156 88.6055 160.636 87.7783 162.046C87.0657 163.194 86.1654 164.213 85.1151 165.061C84.4224 165.639 83.6741 166.148 82.8814 166.579C82.6029 166.757 82.2986 166.891 81.9794 166.977C81.9149 166.88 83.1928 166.245 84.8573 164.759C85.8346 163.901 86.6717 162.895 87.338 161.777C88.1286 160.378 88.8038 158.916 89.3569 157.406C90.5147 154.73 90.7785 151.75 90.1086 148.912C89.7871 147.75 89.3556 146.622 88.8199 145.542Z" fill="#272727"/>
<g opacity="0.3">
<path d="M22.0142 167.562L17.1926 185.682L15.528 197.492L22.4868 179.308L23.0881 171.901L22.0142 167.562Z" fill="black"/>
</g>
<path d="M62.596 97.7111C62.596 97.7111 62.2631 97.3451 61.5221 96.796C60.7811 96.247 59.675 95.601 58.3005 94.6428L58.6119 94.5136C58.4938 95.7732 58.4508 97.2482 58.4508 98.8846C58.4879 100.681 58.4269 102.478 58.2683 104.268L58.1716 105.118L57.7528 104.375C57.2159 103.406 56.6789 102.416 56.0346 101.415C53.7228 97.728 51.6392 93.9025 49.7954 89.9596C49.2646 88.7449 48.8127 87.497 48.4423 86.2238C48.2933 85.7624 48.196 85.2858 48.1524 84.8027C48.3604 85.239 48.5293 85.693 48.6571 86.1592C49.0973 87.3966 49.599 88.6111 50.1605 89.7981C51.5565 92.8234 53.9298 96.7745 56.5501 101.145C57.1514 102.157 57.7313 103.159 58.2683 104.128L57.7528 104.225C57.9568 102.351 57.9676 100.564 57.9891 98.9169C57.9972 97.4417 58.0868 95.9681 58.2575 94.5029V94.1691L58.526 94.3629C59.6116 95.0586 60.6584 95.8133 61.6617 96.6238C61.9268 96.8607 62.1711 97.1201 62.3919 97.3989C62.553 97.5927 62.6175 97.7111 62.596 97.7111Z" fill="#272727"/>
<path d="M78.6289 87.6893C78.5508 88.01 78.4001 88.3084 78.1886 88.5614C77.6827 89.292 77.1265 89.9863 76.5241 90.6392C75.0422 92.3187 72.8622 94.5042 70.3816 96.8512C68.7922 98.3584 67.2673 99.7472 65.9572 100.921L65.7102 101.125L65.5706 100.856C64.7115 99.1659 64.0027 97.7448 63.5195 96.7435C63.2352 96.2305 63.0049 95.6893 62.8322 95.1286C63.2034 95.5856 63.5205 96.0842 63.7772 96.6143C64.3249 97.5725 65.0981 98.9505 66.0002 100.619L65.6243 100.555L69.995 96.4421C72.4649 94.1059 74.6878 91.9634 76.2342 90.3701C77.0073 89.5626 77.6302 88.9167 78.0168 88.4322C78.4034 87.9477 78.5752 87.614 78.6289 87.6893Z" fill="#272727"/>
<path d="M66.3865 126.33C65.9709 126.468 65.5357 126.537 65.0979 126.535C64.5821 126.579 64.0629 126.561 63.5515 126.481C62.8393 126.408 62.1675 126.115 61.6293 125.641C61.3251 125.328 61.0896 124.955 60.9379 124.545C60.7863 124.135 60.7218 123.698 60.7487 123.262C60.7487 122.358 60.7487 121.432 60.7487 120.441C60.8131 118.45 60.8668 116.275 60.9313 113.982C61.0709 109.417 61.2319 105.283 61.3715 102.29C61.4575 100.88 61.5219 99.6954 61.5756 98.748C61.5704 98.3091 61.6209 97.8714 61.7259 97.4453C61.7882 97.8765 61.8098 98.3127 61.7904 98.748C61.7904 99.7062 61.7904 100.901 61.7904 102.301C61.7904 105.294 61.6508 109.439 61.5112 114.003C61.436 116.286 61.3608 118.45 61.2857 120.463C61.2105 122.476 60.8024 124.371 61.887 125.372C62.3623 125.803 62.9514 126.087 63.5837 126.19C64.073 126.278 64.5687 126.325 65.0657 126.33C65.5056 126.304 65.9466 126.304 66.3865 126.33Z" fill="#272727"/>
<rect x="2.93845" y="121.95" width="114.875" height="42.106" rx="21.053" fill="#111111"/>
<rect x="3.79251" y="122.804" width="113.167" height="40.3979" rx="20.199" stroke="white" stroke-opacity="0.36" stroke-width="1.70813"/>
<rect x="9.77078" y="128.783" width="28.441" height="28.441" rx="14.2205" fill="#1AC057"/>
<ellipse cx="23.9912" cy="143.004" rx="12.6813" ry="12.6814" fill="white"/>
<path fill-rule="evenodd" clip-rule="evenodd" d="M9.77078 143.004C9.77078 135.15 16.1375 128.783 23.9912 128.783H24.0739C27.8344 128.794 31.4366 130.299 34.0879 132.965C36.7393 135.632 38.2227 139.243 38.2117 143.004C38.2117 150.857 31.845 157.224 23.9912 157.224C16.1375 157.224 9.77078 150.857 9.77078 143.004ZM22.7517 148.478L24.2323 143.486L26.5392 142.832L27.0213 141.179L24.7487 141.867L27.159 133.673V133.542C27.1554 133.436 27.1098 133.336 27.0323 133.263C26.9548 133.191 26.8517 133.152 26.7458 133.156H23.6813C23.4426 133.149 23.2296 133.305 23.1649 133.535L20.307 143.245L18.0345 143.933L17.518 145.517L19.7905 144.829L17.759 151.75H29.8791C30.1186 151.759 30.3331 151.602 30.3956 151.371L31.0842 148.995V148.864C31.0807 148.758 31.0351 148.658 30.9576 148.586C30.8801 148.513 30.777 148.475 30.6711 148.478H22.7517Z" fill="#345D9D"/>
<rect x="27.9632" y="128.782" width="28.441" height="28.441" rx="14.2205" fill="#1AC057"/>
<circle cx="42.1837" cy="143.003" r="14.2205" fill="#0AC18E"/>
<path fill-rule="evenodd" clip-rule="evenodd" d="M46.6195 138.228C45.9049 136.607 44.2627 136.261 42.2523 136.597L41.6063 134.092L40.0832 134.485L40.7184 136.983C40.5726 137.02 40.4254 137.054 40.2775 137.089C40.0188 137.151 39.7579 137.213 39.4985 137.286L38.8632 134.803L37.3401 135.196L37.9862 137.701C37.6577 137.795 34.9111 138.499 34.9111 138.499L35.3297 140.13C35.3297 140.13 36.4486 139.816 36.4378 139.841C37.0586 139.679 37.3509 139.989 37.4881 140.282L39.2638 147.147C39.2855 147.345 39.2494 147.684 38.8235 147.8C38.8488 147.814 37.7155 148.085 37.7155 148.085L37.8815 149.987C37.8815 149.987 40.6029 149.29 40.9602 149.2L41.6135 151.734L43.1366 151.34L42.4833 148.789C42.902 148.691 43.3098 148.59 43.7069 148.486L44.3565 151.023L45.8796 150.629L45.2264 148.099C47.5724 147.529 49.229 146.049 48.8898 143.786C48.6732 142.422 47.1826 141.303 45.9446 141.177C46.7062 140.502 47.0923 139.517 46.6195 138.228ZM45.8869 144.201C46.1483 146.134 43.8679 146.604 42.5755 146.871C42.3693 146.913 42.1882 146.95 42.0466 146.988L41.1515 143.635C41.2508 143.609 41.3702 143.575 41.5052 143.536L41.5053 143.536C42.7732 143.174 45.4237 142.417 45.8869 144.201ZM41.2259 141.989C42.3113 141.769 44.2894 141.368 44.01 139.636C43.4388 138.023 41.4549 138.61 40.3888 138.925C40.2356 138.97 40.1013 139.01 39.9929 139.036L40.8086 142.079C40.9206 142.05 41.0632 142.022 41.2259 141.989Z" fill="white"/>
<rect x="46.1555" y="128.782" width="28.441" height="28.441" rx="14.2205" fill="#6B8CEF"/>
<path fill-rule="evenodd" clip-rule="evenodd" d="M60.3772 128.782V139.296L52.6003 142.772L60.3772 139.298V148.426L51.4944 143.266L51.4941 143.267L51.4942 143.266L51.4941 143.266L51.4943 143.266L60.3772 128.782ZM60.3796 128.782L69.2635 143.266L69.2638 143.266L69.2637 143.266L69.2638 143.267L69.2635 143.266L60.3796 148.426V139.298L68.1575 142.772L60.3796 139.296V128.782ZM60.3772 150.08V157.223L51.4882 144.921L60.3772 150.08ZM60.3796 157.223V150.078L69.2638 144.921L60.3796 157.223Z" fill="white"/>
<rect x="64.3477" y="128.782" width="28.441" height="28.441" rx="14.2205" fill="#50AF95"/>
<path fill-rule="evenodd" clip-rule="evenodd" d="Mnan nanL69.555 130.681L64.3691 141.574C64.3286 141.657 64.3469 141.757 64.4143 141.821L78.4204 155.242C78.503 155.321 78.6335 155.321 78.7162 155.242L92.7222 141.821C92.7896 141.758 92.808 141.658 92.7674 141.575L87.5815 130.682C87.5473 130.607 87.4726 130.559 87.3904 130.56H69.7478C69.6652 130.559 69.5897 130.606 69.555 130.681Lnan nanZ" fill="#50AF95"/>
<path fill-rule="evenodd" clip-rule="evenodd" d="M80.3677 142.693C80.2672 142.7 79.7476 142.731 78.5888 142.731C77.6671 142.731 77.0126 142.704 76.783 142.693C73.221 142.536 70.5622 141.916 70.5622 141.174C70.5622 140.431 73.221 139.812 76.783 139.653V142.075C77.016 142.092 77.683 142.132 78.6047 142.132C79.7108 142.132 80.2646 142.085 80.3644 142.076V139.655C83.9189 139.813 86.5718 140.433 86.5718 141.174C86.5718 141.914 83.9197 142.535 80.3644 142.692L80.3677 142.693ZM80.3677 139.404V137.236H85.3283V133.931H71.8225V137.236H76.7822V139.403C72.7509 139.588 69.7193 140.387 69.7193 141.344C69.7193 142.301 72.7509 143.098 76.7822 143.285V150.231H80.3669V143.282C84.389 143.097 87.4156 142.299 87.4156 141.343C87.4156 140.387 84.3915 139.589 80.3669 139.403L80.3677 139.404Z" fill="white"/>
<rect x="82.54" y="128.782" width="28.441" height="28.441" rx="14.2205" fill="#1AC057"/>
<path d="M110.555 146.443C108.656 154.061 100.939 158.698 93.3192 156.798C85.7024 154.898 81.0656 147.182 82.966 139.564C84.8646 131.945 92.5814 127.308 100.199 129.208C107.819 131.107 112.455 138.824 110.555 146.443Z" fill="#F7931A"/>
<path fill-rule="evenodd" clip-rule="evenodd" d="M103.029 140.977C103.312 139.085 101.871 138.067 99.9012 137.389L100.54 134.826L98.98 134.437L98.3579 136.932C97.9477 136.83 97.5264 136.734 97.1078 136.638L97.7344 134.126L96.175 133.737L95.5355 136.3C95.196 136.222 94.8627 136.146 94.5392 136.065L94.541 136.057L92.3892 135.52L91.9742 137.187C91.9742 137.187 93.1318 137.452 93.1074 137.468C93.7393 137.626 93.8535 138.044 93.8344 138.376L93.1065 141.296C93.15 141.307 93.2065 141.323 93.2687 141.348L93.2158 141.335C93.1796 141.326 93.1421 141.316 93.1038 141.307L92.0835 145.398C92.0062 145.59 91.8102 145.878 91.3685 145.768C91.384 145.791 90.2344 145.485 90.2344 145.485L89.4598 147.271L91.4902 147.777C91.7169 147.834 91.9409 147.893 92.1625 147.95L92.1627 147.95C92.3103 147.989 92.4569 148.027 92.6025 148.064L91.9568 150.657L93.5153 151.046L94.1548 148.481C94.5805 148.596 94.9938 148.703 95.3982 148.803L94.7609 151.357L96.3212 151.745L96.9669 149.158C99.6275 149.661 101.628 149.458 102.47 147.052C103.149 145.114 102.436 143.997 101.037 143.268C102.056 143.033 102.824 142.362 103.029 140.977ZM99.4639 145.976C99.0216 147.753 96.2391 147.019 94.966 146.682C94.8515 146.652 94.7492 146.625 94.6618 146.603L95.5186 143.169C95.6249 143.195 95.7548 143.224 95.902 143.257C97.2187 143.553 99.9172 144.158 99.4639 145.976ZM96.1665 141.663C97.228 141.947 99.5433 142.565 99.9465 140.949C100.358 139.296 98.1081 138.798 97.0091 138.555C96.8855 138.528 96.7764 138.503 96.6874 138.481L95.9106 141.596C95.984 141.615 96.0701 141.638 96.1665 141.663Z" fill="white"/>
</g>
<defs>
<clipPath id="clip0_1_34880">
<rect width="121.95" height="174.844" fill="white"/>
</clipPath>
</defs>
</svg>
