<svg width="21" height="21" viewBox="0 0 21 21" fill="none" xmlns="http://www.w3.org/2000/svg">
<mask id="mask0_2002_19794" style="mask-type:luminance" maskUnits="userSpaceOnUse" x="0" y="0" width="21" height="21">
<path fill-rule="evenodd" clip-rule="evenodd" d="M20.7558 8.59091H10.7442V12.6477H16.507C15.9698 15.225 13.7233 16.7045 10.7442 16.7045C7.22791 16.7045 4.39535 13.9364 4.39535 10.5C4.39535 7.06364 7.22791 4.29545 10.7442 4.29545C12.2581 4.29545 13.6256 4.82045 14.7 5.67955L17.8256 2.625C15.9209 1.00227 13.4791 0 10.7442 0C4.78605 0 0 4.67727 0 10.5C0 16.3227 4.78605 21 10.7442 21C16.1163 21 21 17.1818 21 10.5C21 9.87955 20.9023 9.21136 20.7558 8.59091Z" fill="white"/>
</mask>
<g mask="url(#mask0_2002_19794)">
<path d="M-0.976562 16.7045V4.29541L7.32576 10.5L-0.976562 16.7045Z" fill="#FBBC05"/>
</g>
<mask id="mask1_2002_19794" style="mask-type:luminance" maskUnits="userSpaceOnUse" x="0" y="0" width="21" height="21">
<path fill-rule="evenodd" clip-rule="evenodd" d="M20.7558 8.59091H10.7442V12.6477H16.507C15.9698 15.225 13.7233 16.7045 10.7442 16.7045C7.22791 16.7045 4.39535 13.9364 4.39535 10.5C4.39535 7.06364 7.22791 4.29545 10.7442 4.29545C12.2581 4.29545 13.6256 4.82045 14.7 5.67955L17.8256 2.625C15.9209 1.00227 13.4791 0 10.7442 0C4.78605 0 0 4.67727 0 10.5C0 16.3227 4.78605 21 10.7442 21C16.1163 21 21 17.1818 21 10.5C21 9.87955 20.9023 9.21136 20.7558 8.59091Z" fill="white"/>
</mask>
<g mask="url(#mask1_2002_19794)">
<path d="M-0.976562 4.29541L7.32576 10.5L10.7444 7.58859L22.4653 5.72723V-0.95459H-0.976562V4.29541Z" fill="#EA4335"/>
</g>
<mask id="mask2_2002_19794" style="mask-type:luminance" maskUnits="userSpaceOnUse" x="0" y="0" width="21" height="21">
<path fill-rule="evenodd" clip-rule="evenodd" d="M20.7558 8.59091H10.7442V12.6477H16.507C15.9698 15.225 13.7233 16.7045 10.7442 16.7045C7.22791 16.7045 4.39535 13.9364 4.39535 10.5C4.39535 7.06364 7.22791 4.29545 10.7442 4.29545C12.2581 4.29545 13.6256 4.82045 14.7 5.67955L17.8256 2.625C15.9209 1.00227 13.4791 0 10.7442 0C4.78605 0 0 4.67727 0 10.5C0 16.3227 4.78605 21 10.7442 21C16.1163 21 21 17.1818 21 10.5C21 9.87955 20.9023 9.21136 20.7558 8.59091Z" fill="white"/>
</mask>
<g mask="url(#mask2_2002_19794)">
<path d="M-0.976562 16.7045L13.6746 5.72723L17.5327 6.2045L22.4653 -0.95459V21.9545H-0.976562V16.7045Z" fill="#34A853"/>
</g>
<mask id="mask3_2002_19794" style="mask-type:luminance" maskUnits="userSpaceOnUse" x="0" y="0" width="21" height="21">
<path fill-rule="evenodd" clip-rule="evenodd" d="M20.7558 8.59091H10.7442V12.6477H16.507C15.9698 15.225 13.7233 16.7045 10.7442 16.7045C7.22791 16.7045 4.39535 13.9364 4.39535 10.5C4.39535 7.06364 7.22791 4.29545 10.7442 4.29545C12.2581 4.29545 13.6256 4.82045 14.7 5.67955L17.8256 2.625C15.9209 1.00227 13.4791 0 10.7442 0C4.78605 0 0 4.67727 0 10.5C0 16.3227 4.78605 21 10.7442 21C16.1163 21 21 17.1818 21 10.5C21 9.87955 20.9023 9.21136 20.7558 8.59091Z" fill="white"/>
</mask>
<g mask="url(#mask3_2002_19794)">
<path d="M22.4651 21.9545L7.32556 10.5L5.37207 9.06814L22.4651 4.29541V21.9545Z" fill="#4285F4"/>
</g>
</svg>
