<svg width="20" height="20" viewBox="0 0 20 20" fill="none" xmlns="http://www.w3.org/2000/svg">
<path d="M3.1525 2.35516L10 0.833496L16.8475 2.35516C17.0326 2.3963 17.198 2.4993 17.3167 2.64717C17.4353 2.79503 17.5 2.97893 17.5 3.1685V11.491C17.4999 12.3141 17.2967 13.1245 16.9082 13.8502C16.5198 14.5759 15.9582 15.1944 15.2733 15.651L10 19.1668L4.72667 15.651C4.04189 15.1945 3.48038 14.5761 3.09196 13.8505C2.70353 13.125 2.5002 12.3148 2.5 11.4918V3.1685C2.50003 2.97893 2.5647 2.79503 2.68332 2.64717C2.80195 2.4993 2.96745 2.3963 3.1525 2.35516ZM10 11.2502L12.4492 12.5377L11.9817 9.811L13.9625 7.87933L11.2242 7.481L10 5.00016L8.775 7.481L6.0375 7.87933L8.01833 9.811L7.55167 12.5377L10 11.2502Z" fill="#00DD77"/>
</svg>
