<svg width="115" height="24" viewBox="0 0 115 24" fill="none" xmlns="http://www.w3.org/2000/svg">
<path d="M82.4976 23.6827V6.88062H87.1495V23.6827H82.4976Z" fill="white"/>
<path d="M84.8343 4.71463C84.1429 4.71463 83.5494 4.48493 83.0544 4.0255C82.5666 3.55877 82.3228 3.00089 82.3228 2.35184C82.3228 1.7101 82.5666 1.15952 83.0544 0.700086C83.5494 0.233362 84.1429 0 84.8343 0C85.526 0 86.1156 0.233362 86.6034 0.700086C87.0984 1.15952 87.3459 1.7101 87.3459 2.35184C87.3459 3.00089 87.0984 3.55877 86.6034 4.0255C86.1156 4.48493 85.526 4.71463 84.8343 4.71463Z" fill="white"/>
<path d="M89.646 23.6826V6.88054H94.1559V9.81215H94.3306C94.6363 8.76931 95.1495 7.98173 95.8701 7.44936C96.591 6.90972 97.421 6.63989 98.3599 6.63989C98.593 6.63989 98.8441 6.65446 99.1134 6.68364C99.3829 6.7128 99.6194 6.75293 99.8233 6.80398V10.9389C99.6048 10.8732 99.3026 10.8149 98.9169 10.7638C98.5309 10.7128 98.178 10.6873 97.8577 10.6873C97.1732 10.6873 96.5618 10.8368 96.0232 11.1357C95.4916 11.4274 95.0694 11.8358 94.7563 12.3609C94.4506 12.886 94.2977 13.4912 94.2977 14.1768V23.6826H89.646Z" fill="white"/>
<path fill-rule="evenodd" clip-rule="evenodd" d="M64.2656 1.27979V23.6825H68.852V20.9916H69.0594C69.2708 21.4583 69.5765 21.9214 69.9768 22.3808C70.3772 22.8329 70.8903 23.2085 71.5166 23.5075C72.1498 23.8065 72.9179 23.9559 73.8207 23.9559C75.0945 23.9559 76.2448 23.6278 77.2714 22.9715C78.305 22.3079 79.1205 21.3343 79.7173 20.0508C80.3215 18.76 80.6237 17.1776 80.6237 15.3034C80.6237 13.3781 80.3143 11.7774 79.6955 10.5012C79.0767 9.21772 78.2503 8.25876 77.2168 7.62432C76.183 6.98256 75.0545 6.66168 73.8315 6.66168C72.8923 6.66168 72.1062 6.82212 71.4728 7.143C70.8467 7.45658 70.3371 7.85037 69.944 8.3244C69.5583 8.79112 69.2633 9.25055 69.0594 9.70269H68.9176V1.27979H64.2656ZM69.2343 17.8959C68.9576 17.152 68.8194 16.2806 68.8194 15.2815C68.8194 14.2824 68.9576 13.4146 69.2343 12.6781C69.5108 11.9415 69.9076 11.3727 70.4246 10.9716C70.9486 10.5705 71.5892 10.37 72.3465 10.37C73.1108 10.37 73.755 10.5778 74.2792 10.9935C74.8035 11.4092 75.2002 11.9852 75.4695 12.7218C75.7388 13.4584 75.8734 14.3116 75.8734 15.2815C75.8734 16.2587 75.7352 17.1229 75.4585 17.874C75.1892 18.6178 74.7924 19.2012 74.2682 19.6242C73.7443 20.0399 73.1036 20.2477 72.3465 20.2477C71.5966 20.2477 70.9596 20.0435 70.4354 19.6351C69.9114 19.2195 69.5108 18.6397 69.2343 17.8959Z" fill="white"/>
<path fill-rule="evenodd" clip-rule="evenodd" d="M52.3533 24C51.2831 24 50.3293 23.814 49.4922 23.442C48.6551 23.0628 47.9926 22.5049 47.5048 21.7684C47.0242 21.0245 46.7842 20.0984 46.7842 18.9899C46.7842 18.0565 46.9552 17.2725 47.2974 16.6381C47.6395 16.0036 48.1055 15.4931 48.6951 15.1066C49.2847 14.7201 49.9546 14.4284 50.7042 14.2315C51.4613 14.0346 52.2548 13.8961 53.0847 13.8159C54.0603 13.7138 54.8466 13.619 55.4434 13.5315C56.0405 13.4367 56.4736 13.2981 56.7429 13.1158C57.0125 12.9334 57.1471 12.6636 57.1471 12.3063V12.2407C57.1471 11.5479 56.9286 11.0119 56.4919 10.6327C56.0623 10.2535 55.4509 10.0638 54.6574 10.0638C53.82 10.0638 53.154 10.2498 52.659 10.6217C52.164 10.9863 51.8363 11.4458 51.6762 12L47.3738 11.65C47.5921 10.629 48.0216 9.74662 48.6623 9.00277C49.3029 8.25164 50.1292 7.67553 51.141 7.27444C52.1602 6.86606 53.3397 6.66187 54.6792 6.66187C55.6109 6.66187 56.5029 6.77126 57.3546 6.99002C58.2135 7.2088 58.9744 7.54792 59.6369 8.00735C60.3065 8.46678 60.8343 9.05746 61.2203 9.77943C61.606 10.4941 61.7989 11.351 61.7989 12.3501V23.6827H57.3872V21.3527H57.2561C56.9868 21.8778 56.6265 22.3409 56.1751 22.7419C55.7237 23.1357 55.1816 23.4457 54.5481 23.6718C53.9147 23.8906 53.1832 24 52.3533 24ZM53.6854 20.7839C54.3699 20.7839 54.9741 20.649 55.4981 20.3792C56.0223 20.102 56.4336 19.7301 56.7322 19.2634C57.0307 18.7967 57.1797 18.268 57.1797 17.6773V15.8942C57.0343 15.989 56.834 16.0766 56.5793 16.1568C56.3316 16.2297 56.0515 16.299 55.7384 16.3646C55.4252 16.4229 55.1123 16.4776 54.7992 16.5287C54.4863 16.5724 54.2024 16.6126 53.9475 16.649C53.4015 16.7292 52.9247 16.8569 52.5169 17.0319C52.1094 17.2069 51.7927 17.4439 51.567 17.7429C51.3413 18.0346 51.2285 18.3992 51.2285 18.8368C51.2285 19.4712 51.4577 19.9562 51.9165 20.2917C52.3823 20.6198 52.9719 20.7839 53.6854 20.7839Z" fill="white"/>
<path d="M31.146 20.904V23.6824H45.2436V19.9632H37.2501V19.8429L44.9597 9.91043V6.88037H31.4299V10.5996H39.3577V10.7199L31.146 20.904Z" fill="white"/>
<path fill-rule="evenodd" clip-rule="evenodd" d="M102.693 23.4421C103.53 23.814 104.484 24 105.554 24C106.384 24 107.116 23.8906 107.749 23.6718C108.382 23.4457 108.925 23.1358 109.376 22.742C109.827 22.3409 110.188 21.8778 110.457 21.3527H110.588V23.6827H115V12.3501C115 11.351 114.807 10.4941 114.421 9.77943C114.035 9.05749 113.507 8.46678 112.838 8.00735C112.175 7.54792 111.414 7.20882 110.555 6.99004C109.704 6.77126 108.812 6.66187 107.88 6.66187C106.541 6.66187 105.361 6.86606 104.342 7.27444C103.33 7.67555 102.504 8.25164 101.863 9.00279C101.223 9.74662 100.793 10.629 100.575 11.65L104.877 12C105.037 11.4458 105.365 10.9864 105.86 10.6217C106.355 10.2498 107.021 10.0639 107.858 10.0639C108.652 10.0639 109.263 10.2535 109.693 10.6327C110.13 11.0119 110.348 11.5479 110.348 12.2407V12.3063C110.348 12.6636 110.213 12.9335 109.944 13.1158C109.675 13.2981 109.241 13.4367 108.644 13.5315C108.048 13.619 107.261 13.7138 106.286 13.8159C105.456 13.8961 104.662 14.0346 103.905 14.2316C103.155 14.4285 102.486 14.7201 101.896 15.1066C101.306 15.4932 100.84 16.0036 100.498 16.6381C100.156 17.2725 99.9849 18.0565 99.9849 18.9899C99.9849 20.0984 100.225 21.0246 100.706 21.7684C101.193 22.505 101.856 23.0628 102.693 23.4421ZM108.699 20.3792C108.175 20.649 107.571 20.7839 106.886 20.7839C106.173 20.7839 105.583 20.6198 105.117 20.2917C104.659 19.9562 104.429 19.4712 104.429 18.8368C104.429 18.3992 104.542 18.0346 104.768 17.7429C104.994 17.4439 105.31 17.2069 105.718 17.0319C106.126 16.8569 106.602 16.7293 107.148 16.649C107.403 16.6126 107.687 16.5725 108 16.5287C108.313 16.4777 108.626 16.423 108.939 16.3646C109.252 16.299 109.532 16.2297 109.78 16.1568C110.035 16.0766 110.235 15.989 110.381 15.8942V17.6773C110.381 18.268 110.231 18.7967 109.933 19.2634C109.635 19.7301 109.223 20.1021 108.699 20.3792Z" fill="white"/>
<path d="M15.5732 17.9999L11.9795 24C15.3105 24 18.1397 22.8341 20.4673 20.5025C22.7948 18.1709 23.9586 15.3367 23.9586 11.9999C23.9586 8.66319 22.7948 5.82899 20.4673 3.4974C18.1397 1.16581 15.3104 1.152e-05 11.9794 0L15.5732 5.99997L19.167 11.9999L8.38574 17.9999H15.5732Z" fill="#0088FF"/>
<path d="M8.38546 5.99997L11.9792 0C8.64817 -4.79998e-07 5.8189 1.16579 3.49133 3.4974C1.16378 5.82899 4.79167e-07 8.66316 0 11.9999C-4.79166e-07 15.3367 1.16378 18.1709 3.49133 20.5025C5.81888 22.8341 8.64821 24 11.9792 24L8.38546 17.9999L4.79171 11.9999L15.573 5.99997H8.38546Z" fill="#0044EE"/>
<path d="M11.9794 0L8.38574 5.99997H15.5732L4.79199 11.9999L8.38574 17.9999L19.167 11.9999L15.5732 5.99997L11.9794 0Z" fill="white"/>
<path d="M8.38574 18L11.9795 24.0001L15.5732 18H8.38574Z" fill="white"/>
</svg>
