<svg xmlns="http://www.w3.org/2000/svg" width="20" height="20" viewBox="0 0 20 20" fill="none">
  <path d="M5.41663 9.58301C4.92417 9.58301 4.43653 9.48601 3.98156 9.29756C3.52659 9.1091 3.1132 8.83288 2.76498 8.48466C2.41676 8.13644 2.14053 7.72304 1.95208 7.26807C1.76362 6.8131 1.66663 6.32546 1.66663 5.83301C1.66663 5.34055 1.76362 4.85292 1.95208 4.39794C2.14053 3.94297 2.41676 3.52958 2.76498 3.18136C3.1132 2.83314 3.52659 2.55691 3.98156 2.36846C4.43653 2.18 4.92417 2.08301 5.41663 2.08301C6.41119 2.08301 7.36501 2.4781 8.06828 3.18136C8.77154 3.88462 9.16663 4.83845 9.16663 5.83301C9.16663 6.82757 8.77154 7.7814 8.06828 8.48466C7.36501 9.18792 6.41119 9.58301 5.41663 9.58301V9.58301ZM5.83329 17.9163C4.83873 17.9163 3.8849 17.5213 3.18164 16.818C2.47838 16.1147 2.08329 15.1609 2.08329 14.1663C2.08329 13.1718 2.47838 12.218 3.18164 11.5147C3.8849 10.8114 4.83873 10.4163 5.83329 10.4163C6.82785 10.4163 7.78168 10.8114 8.48494 11.5147C9.1882 12.218 9.58329 13.1718 9.58329 14.1663C9.58329 15.1609 9.1882 16.1147 8.48494 16.818C7.78168 17.5213 6.82785 17.9163 5.83329 17.9163V17.9163ZM14.1666 9.58301C13.6742 9.58301 13.1865 9.48601 12.7316 9.29756C12.2766 9.1091 11.8632 8.83288 11.515 8.48466C11.1668 8.13644 10.8905 7.72304 10.7021 7.26807C10.5136 6.8131 10.4166 6.32546 10.4166 5.83301C10.4166 5.34055 10.5136 4.85292 10.7021 4.39794C10.8905 3.94297 11.1668 3.52958 11.515 3.18136C11.8632 2.83314 12.2766 2.55691 12.7316 2.36846C13.1865 2.18 13.6742 2.08301 14.1666 2.08301C15.1612 2.08301 16.115 2.4781 16.8183 3.18136C17.5215 3.88462 17.9166 4.83845 17.9166 5.83301C17.9166 6.82757 17.5215 7.7814 16.8183 8.48466C16.115 9.18792 15.1612 9.58301 14.1666 9.58301V9.58301ZM14.1666 17.9163C13.1721 17.9163 12.2182 17.5213 11.515 16.818C10.8117 16.1147 10.4166 15.1609 10.4166 14.1663C10.4166 13.1718 10.8117 12.218 11.515 11.5147C12.2182 10.8114 13.1721 10.4163 14.1666 10.4163C15.1612 10.4163 16.115 10.8114 16.8183 11.5147C17.5215 12.218 17.9166 13.1718 17.9166 14.1663C17.9166 15.1609 17.5215 16.1147 16.8183 16.818C16.115 17.5213 15.1612 17.9163 14.1666 17.9163ZM5.41663 7.91634C5.96916 7.91634 6.49906 7.69685 6.88976 7.30615C7.28047 6.91545 7.49996 6.38554 7.49996 5.83301C7.49996 5.28047 7.28047 4.75057 6.88976 4.35987C6.49906 3.96917 5.96916 3.74967 5.41663 3.74967C4.86409 3.74967 4.33419 3.96917 3.94349 4.35987C3.55279 4.75057 3.33329 5.28047 3.33329 5.83301C3.33329 6.38554 3.55279 6.91545 3.94349 7.30615C4.33419 7.69685 4.86409 7.91634 5.41663 7.91634V7.91634ZM5.83329 16.2497C6.38583 16.2497 6.91573 16.0302 7.30643 15.6395C7.69713 15.2488 7.91663 14.7189 7.91663 14.1663C7.91663 13.6138 7.69713 13.0839 7.30643 12.6932C6.91573 12.3025 6.38583 12.083 5.83329 12.083C5.28076 12.083 4.75085 12.3025 4.36015 12.6932C3.96945 13.0839 3.74996 13.6138 3.74996 14.1663C3.74996 14.7189 3.96945 15.2488 4.36015 15.6395C4.75085 16.0302 5.28076 16.2497 5.83329 16.2497ZM14.1666 7.91634C14.7192 7.91634 15.2491 7.69685 15.6398 7.30615C16.0305 6.91545 16.25 6.38554 16.25 5.83301C16.25 5.28047 16.0305 4.75057 15.6398 4.35987C15.2491 3.96917 14.7192 3.74967 14.1666 3.74967C13.6141 3.74967 13.0842 3.96917 12.6935 4.35987C12.3028 4.75057 12.0833 5.28047 12.0833 5.83301C12.0833 6.38554 12.3028 6.91545 12.6935 7.30615C13.0842 7.69685 13.6141 7.91634 14.1666 7.91634ZM14.1666 16.2497C14.7192 16.2497 15.2491 16.0302 15.6398 15.6395C16.0305 15.2488 16.25 14.7189 16.25 14.1663C16.25 13.6138 16.0305 13.0839 15.6398 12.6932C15.2491 12.3025 14.7192 12.083 14.1666 12.083C13.6141 12.083 13.0842 12.3025 12.6935 12.6932C12.3028 13.0839 12.0833 13.6138 12.0833 14.1663C12.0833 14.7189 12.3028 15.2488 12.6935 15.6395C13.0842 16.0302 13.6141 16.2497 14.1666 16.2497Z" fill="white"/>
</svg>