<svg xmlns="http://www.w3.org/2000/svg" width="25" height="25" viewBox="0 0 25 25" fill="none">
  <ellipse cx="9.00372" cy="10.004" rx="6.0025" ry="2.50104" stroke="#0044EE" stroke-width="1.5" stroke-linecap="round" stroke-linejoin="round"/>
  <path d="M15.0062 13.5059C15.0062 14.8871 12.3188 16.0069 9.00372 16.0069C5.68863 16.0069 3.00122 14.8871 3.00122 13.5059" stroke="#0044EE" stroke-width="1.5" stroke-linecap="round" stroke-linejoin="round"/>
  <path d="M21.0087 10.0039C21.0087 11.3852 18.3213 12.5049 15.0062 12.5049" stroke="#0044EE" stroke-width="1.5" stroke-linecap="round" stroke-linejoin="round"/>
  <path d="M15.0062 10.0039V17.507C15.0062 18.8883 12.3188 20.0081 9.00372 20.0081C5.68863 20.0081 3.00122 18.8883 3.00122 17.507V10.0039" stroke="#0044EE" stroke-width="1.5" stroke-linecap="round" stroke-linejoin="round"/>
  <path d="M21.0087 6.50293V14.0061C21.0087 15.3873 18.3213 16.5071 15.0062 16.5071" stroke="#0044EE" stroke-width="1.5" stroke-linecap="round" stroke-linejoin="round"/>
  <path d="M9.50399 7.51342C9.207 7.25848 9.02644 6.89374 9.00378 6.50299C9.00378 5.12242 11.6949 4.00195 15.0063 4.00195C18.3177 4.00195 21.0088 5.12242 21.0088 6.50299C21.0088 7.88357 18.3177 9.00404 15.0063 9.00404C14.8362 9.00404 14.6661 9.00404 14.5061 8.99403" stroke="#0044EE" stroke-width="1.5" stroke-linecap="round" stroke-linejoin="round"/>
</svg>