<svg xmlns="http://www.w3.org/2000/svg" width="16" height="16" viewBox="0 0 16 16" fill="none">
  <g clip-path="url(#clip0_2083_13094)">
    <path d="M2.66666 7.33301H13.3333M2.66666 7.33301C1.93028 7.33301 1.33333 6.73605 1.33333 5.99967V5.33301C1.33333 4.59663 1.93028 3.99967 2.66666 3.99967H13.3333C14.0697 3.99967 14.6667 4.59663 14.6667 5.33301V5.99967C14.6667 6.73605 14.0697 7.33301 13.3333 7.33301M2.66666 7.33301L2.66666 13.333C2.66666 14.0694 3.26362 14.6663 3.99999 14.6663H12C12.7364 14.6663 13.3333 14.0694 13.3333 13.333V7.33301M7.99999 3.99967H10.6667C11.403 3.99967 12 3.40272 12 2.66634C12 1.92996 11.403 1.33301 10.6667 1.33301C9.1939 1.33301 7.99999 2.52692 7.99999 3.99967ZM7.99999 3.99967H5.33333C4.59695 3.99967 3.99999 3.40272 3.99999 2.66634C3.99999 1.92996 4.59695 1.33301 5.33333 1.33301C6.80609 1.33301 7.99999 2.52692 7.99999 3.99967ZM7.99999 3.99967V14.6663" stroke="#A1A1AA" stroke-width="1.5" stroke-linecap="round"/>
  </g>
  <defs>
    <clipPath id="clip0_2083_13094">
      <rect width="16" height="16" fill="white"/>
    </clipPath>
  </defs>
</svg>