<svg xmlns="http://www.w3.org/2000/svg" width="16" height="16" viewBox="0 0 16 16" fill="none">
  <path d="M8.5 9.33301C8.5 9.60915 8.27614 9.83301 8 9.83301C7.72386 9.83301 7.5 9.60915 7.5 9.33301C7.5 9.05687 7.72386 8.83301 8 8.83301C8.27614 8.83301 8.5 9.05687 8.5 9.33301Z" fill="#A1A1AA"/>
  <path d="M10.8284 6.50458C10.1046 5.78072 9.10456 5.33301 7.99999 5.33301C6.89543 5.33301 5.89543 5.78072 5.17157 6.50458M6.58578 7.91879C6.94771 7.55687 7.44771 7.33301 7.99999 7.33301C8.55228 7.33301 9.05228 7.55687 9.41421 7.91879M7.33333 12.6663H8.66666M3.33333 3.99967L3.33333 11.9997C3.33333 13.4724 4.52724 14.6663 5.99999 14.6663H9.99999C11.4728 14.6663 12.6667 13.4724 12.6667 11.9997V3.99967C12.6667 2.52692 11.4728 1.33301 10 1.33301L6 1.33301C4.52724 1.33301 3.33333 2.52691 3.33333 3.99967Z" stroke="#A1A1AA" stroke-width="1.5" stroke-linecap="round" stroke-linejoin="round"/>
</svg>