<svg xmlns="http://www.w3.org/2000/svg" width="16" height="16" viewBox="0 0 16 16" fill="none">
  <path fill-rule="evenodd" clip-rule="evenodd" d="M6.43865 12.428L6.78946 13.217C7.00252 13.6968 7.47829 14.006 8.0033 14.006V14.006C8.52831 14.006 9.00407 13.6968 9.21714 13.217L9.56795 12.428C9.69283 12.148 9.90289 11.9146 10.1682 11.761V11.761C10.4352 11.607 10.744 11.5414 11.0506 11.5736L11.9089 11.665C12.4309 11.7202 12.9365 11.4627 13.1988 11.0081V11.0081C13.4615 10.5537 13.4316 9.98714 13.1228 9.56279L12.6146 8.8645C12.4336 8.61401 12.3369 8.31249 12.3384 8.00348V8.00348C12.3384 7.6953 12.436 7.39503 12.6172 7.14579L13.1254 6.4475C13.4343 6.02315 13.4641 5.45664 13.2015 5.00223V5.00223C12.9391 4.54755 12.4336 4.29007 11.9116 4.34529L11.0532 4.43666C10.7467 4.46885 10.4378 4.40325 10.1709 4.24925V4.24925C9.90503 4.0948 9.69491 3.86017 9.57062 3.57897L9.21714 2.78997C9.00407 2.31014 8.52831 2.00098 8.0033 2.00098V2.00098C7.47829 2.00098 7.00252 2.31014 6.78946 2.78997L6.43865 3.57897C6.31435 3.86017 6.10423 4.0948 5.8384 4.24925V4.24925C5.57141 4.40325 5.26256 4.46885 4.95603 4.43666L4.095 4.34529C3.57299 4.29007 3.06745 4.54755 2.80513 5.00223V5.00223C2.54248 5.45664 2.57228 6.02315 2.88116 6.4475L3.38938 7.14579C3.57062 7.39503 3.66821 7.6953 3.66816 8.00348V8.00348C3.66821 8.31165 3.57062 8.61192 3.38938 8.86117L2.88116 9.55946C2.57228 9.9838 2.54248 10.5503 2.80513 11.0047V11.0047C3.0677 11.4591 3.57306 11.7165 4.095 11.6617L4.95336 11.5703C5.25989 11.5381 5.56875 11.6037 5.83573 11.7577V11.7577C6.10256 11.9117 6.31365 12.1464 6.43865 12.428V12.428Z" stroke="#A1A1AA" stroke-width="1.5"/>
  <circle cx="8.00329" cy="8.00368" r="1.7654" stroke="#A1A1AA" stroke-width="1.5" stroke-linecap="round" stroke-linejoin="round"/>
</svg>