<svg xmlns="http://www.w3.org/2000/svg" width="16" height="16" viewBox="0 0 16 16" fill="none">
  <path d="M7.41971 8.00632H10.2049" stroke="#A1A1AA" stroke-width="1.5" stroke-linecap="round" stroke-linejoin="round"/>
  <path d="M7.41971 10.6677L11.4214 10.6711" stroke="#A1A1AA" stroke-width="1.5" stroke-linecap="round" stroke-linejoin="round"/>
  <rect x="2.00079" y="2.00098" width="12.005" height="12.005" rx="2" stroke="#A1A1AA" stroke-width="1.5" stroke-linecap="round" stroke-linejoin="round"/>
  <path d="M7.41971 5.3325H11.4214" stroke="#A1A1AA" stroke-width="1.5" stroke-linecap="round" stroke-linejoin="round"/>
  <path d="M4.75128 5.16869C4.65928 5.16906 4.58496 5.24387 4.58521 5.33587C4.58545 5.42787 4.66017 5.50229 4.75217 5.50216C4.84416 5.50204 4.91868 5.42743 4.91868 5.33543C4.91886 5.29104 4.90126 5.24842 4.86981 5.21709C4.83835 5.18577 4.79567 5.16834 4.75128 5.16869" stroke="#A1A1AA" stroke-width="1.5" stroke-linecap="round" stroke-linejoin="round"/>
  <path d="M4.75128 7.83666C4.65928 7.83703 4.58496 7.91184 4.58521 8.00384C4.58545 8.09584 4.66017 8.17025 4.75217 8.17013C4.84416 8.17001 4.91868 8.0954 4.91868 8.00339C4.91886 7.95901 4.90126 7.91639 4.86981 7.88506C4.83835 7.85374 4.79567 7.8363 4.75128 7.83666" stroke="#A1A1AA" stroke-width="1.5" stroke-linecap="round" stroke-linejoin="round"/>
  <path d="M4.75128 10.5046C4.65928 10.505 4.58496 10.5798 4.58521 10.6718C4.58545 10.7638 4.66017 10.8382 4.75217 10.8381C4.84416 10.838 4.91868 10.7634 4.91868 10.6714C4.91886 10.627 4.90126 10.5844 4.86981 10.553C4.83835 10.5217 4.79567 10.5043 4.75128 10.5046" stroke="#A1A1AA" stroke-width="1.5" stroke-linecap="round" stroke-linejoin="round"/>
</svg>