<svg width="20" height="20" viewBox="0 0 20 20" fill="none" xmlns="http://www.w3.org/2000/svg">
<g clip-path="url(#clip0_2100_21552)">
<path d="M-5 -1H25.25V21H-5" fill="#BD3D44"/>
<path d="M-5 1.53418H25.25H-5ZM-5 4.9121H25.25H-5ZM-5 8.30376H25.25H-5ZM-5 11.6954H25.25H-5ZM-5 15.0871H25.25H-5ZM-5 18.4788H25.25H-5Z" fill="black"/>
<path d="M-5 0.686523V2.38236H25.25V0.686523H-5ZM-5 4.06444V5.76027H25.25V4.06444H-5ZM-5 7.45611V9.15194H25.25V7.45611H-5ZM-5 10.8478V12.5436H25.25V10.8478H-5ZM-5 14.2394V15.9353H25.25V14.2394H-5ZM-5 17.6311V19.3269H25.25V17.6311H-5Z" fill="white"/>
<path d="M-5 -1H12.2425V10.8479H-5" fill="#192F5D"/>
<path d="M10.7867 8.99141L11.2121 10.2289L10.125 9.44974H11.4484L10.3613 10.2289L10.7867 8.99141ZM7.95076 8.99141L8.37615 10.2289L7.28904 9.44974H8.61248L7.52537 10.2289L7.95076 8.99141ZM5.06755 8.99141L5.49294 10.2289L4.40583 9.44974H5.72927L4.64216 10.2289L5.06755 8.99141ZM2.18435 8.99141L2.60974 10.2289L1.52263 9.44974H2.84607L1.75896 10.2289L2.18435 8.99141ZM-0.698853 8.99141L-0.273462 10.2289L-1.36057 9.44974H-0.0371342L-1.12424 10.2289L-0.698853 8.99141ZM-3.58206 8.99141L-3.15667 10.2289L-4.24377 9.44974H-2.92034L-4.00745 10.2289L-3.58206 8.99141ZM9.36872 7.79974L9.79412 9.03724L8.70701 8.25807H10.0304L8.94333 9.03724L9.36872 7.79974ZM6.48552 7.79974L6.91091 9.03724L5.8238 8.25807H7.14724L6.06013 9.03724L6.48552 7.79974ZM3.64958 7.79974L4.07498 9.03724L2.98787 8.25807H4.3113L3.22419 9.03724L3.64958 7.79974ZM0.766382 7.79974L1.19177 9.03724L0.104663 8.25807H1.4281L0.340991 9.03724L0.766382 7.79974ZM-2.11682 7.79974L-1.69143 9.03724L-2.77854 8.25807H-1.4551L-2.54221 9.03724L-2.11682 7.79974ZM10.7867 6.60807L11.2121 7.84557L10.125 7.06641H11.4484L10.3613 7.84557L10.7867 6.60807ZM7.95076 6.60807L8.37615 7.84557L7.28904 7.06641H8.61248L7.52537 7.84557L7.95076 6.60807ZM5.06755 6.60807L5.49294 7.84557L4.40583 7.06641H5.72927L4.64216 7.84557L5.06755 6.60807ZM2.18435 6.60807L2.60974 7.84557L1.52263 7.06641H2.84607L1.75896 7.84557L2.18435 6.60807ZM-0.698853 6.60807L-0.273462 7.84557L-1.36057 7.06641H-0.0371342L-1.12424 7.84557L-0.698853 6.60807ZM-3.58206 6.60807L-3.15667 7.84557L-4.24377 7.06641H-2.92034L-4.00745 7.84557L-3.58206 6.60807ZM9.36872 5.46224L9.79412 6.69974L8.70701 5.92057H10.0304L8.94333 6.69974L9.36872 5.46224ZM6.48552 5.46224L6.91091 6.69974L5.8238 5.92057H7.14724L6.06013 6.69974L6.48552 5.46224ZM3.64958 5.46224L4.07498 6.69974L2.98787 5.92057H4.3113L3.22419 6.69974L3.64958 5.46224ZM0.766382 5.46224L1.19177 6.69974L0.104663 5.92057H1.4281L0.340991 6.69974L0.766382 5.46224ZM-2.11682 5.46224L-1.69143 6.69974L-2.77854 5.92057H-1.4551L-2.54221 6.69974L-2.11682 5.46224ZM10.7867 4.27057L11.2121 5.50807L10.125 4.72891H11.4484L10.3613 5.50807L10.7867 4.27057ZM7.95076 4.27057L8.37615 5.50807L7.28904 4.72891H8.61248L7.52537 5.50807L7.95076 4.27057ZM5.06755 4.27057L5.49294 5.50807L4.40583 4.72891H5.72927L4.64216 5.50807L5.06755 4.27057ZM2.18435 4.27057L2.60974 5.50807L1.52263 4.72891H2.84607L1.75896 5.50807L2.18435 4.27057ZM-0.698853 4.27057L-0.273462 5.50807L-1.36057 4.72891H-0.0371342L-1.12424 5.50807L-0.698853 4.27057ZM-3.58206 4.27057L-3.15667 5.50807L-4.24377 4.72891H-2.92034L-4.00745 5.50807L-3.58206 4.27057ZM9.36872 3.07891L9.79412 4.31641L8.70701 3.53724H10.0304L8.94333 4.31641L9.36872 3.07891ZM6.48552 3.07891L6.91091 4.31641L5.8238 3.53724H7.14724L6.06013 4.31641L6.48552 3.07891ZM3.64958 3.07891L4.07498 4.31641L2.98787 3.53724H4.3113L3.22419 4.31641L3.64958 3.07891ZM0.766382 3.07891L1.19177 4.31641L0.104663 3.53724H1.4281L0.340991 4.31641L0.766382 3.07891ZM-2.11682 3.07891L-1.69143 4.31641L-2.77854 3.53724H-1.4551L-2.54221 4.31641L-2.11682 3.07891ZM10.7867 1.88724L11.2121 3.12474L10.125 2.34557H11.4484L10.3613 3.12474L10.7867 1.88724ZM7.95076 1.88724L8.37615 3.12474L7.28904 2.34557H8.61248L7.52537 3.12474L7.95076 1.88724ZM5.06755 1.88724L5.49294 3.12474L4.40583 2.34557H5.72927L4.64216 3.12474L5.06755 1.88724ZM2.18435 1.88724L2.60974 3.12474L1.52263 2.34557H2.84607L1.75896 3.12474L2.18435 1.88724ZM-0.698853 1.88724L-0.273462 3.12474L-1.36057 2.34557H-0.0371342L-1.12424 3.12474L-0.698853 1.88724ZM-3.58206 1.88724L-3.15667 3.12474L-4.24377 2.34557H-2.92034L-4.00745 3.12474L-3.58206 1.88724ZM9.36872 0.695573L9.79412 1.93307L8.70701 1.15391H10.0304L8.94333 1.93307L9.36872 0.695573ZM6.48552 0.695573L6.91091 1.93307L5.8238 1.15391H7.14724L6.06013 1.93307L6.48552 0.695573ZM3.64958 0.695573L4.07498 1.93307L2.98787 1.15391H4.3113L3.22419 1.93307L3.64958 0.695573ZM0.766382 0.695573L1.19177 1.93307L0.104663 1.15391H1.4281L0.340991 1.93307L0.766382 0.695573ZM-2.11682 0.695573L-1.69143 1.93307L-2.77854 1.15391H-1.4551L-2.54221 1.93307L-2.11682 0.695573ZM10.7867 -0.496094L11.2121 0.741406L10.125 -0.0377604H11.4484L10.3613 0.741406L10.7867 -0.496094ZM7.95076 -0.496094L8.37615 0.741406L7.28904 -0.0377604H8.61248L7.52537 0.741406L7.95076 -0.496094ZM5.06755 -0.496094L5.49294 0.741406L4.40583 -0.0377604H5.72927L4.64216 0.741406L5.06755 -0.496094ZM2.18435 -0.496094L2.60974 0.741406L1.52263 -0.0377604H2.84607L1.75896 0.741406L2.18435 -0.496094ZM-0.698853 -0.496094L-0.273462 0.741406L-1.36057 -0.0377604H-0.0371342L-1.12424 0.741406L-0.698853 -0.496094ZM-3.58206 -0.496094L-3.15667 0.741406L-4.24377 -0.0377604H-2.92034L-4.00745 0.741406L-3.58206 -0.496094Z" fill="white"/>
</g>
<defs>
<clipPath id="clip0_2100_21552">
<rect width="29.3333" height="22" fill="white" transform="translate(-5 -1)"/>
</clipPath>
</defs>
</svg>
