<svg xmlns="http://www.w3.org/2000/svg" width="28" height="28" viewBox="0 0 28 28" fill="none">
  <path d="M17.7824 20.5713L13.6788 27.4286C17.4823 27.4286 20.7129 26.0961 23.3707 23.4314C26.0284 20.7668 27.3573 17.5277 27.3573 13.7142C27.3573 9.90079 26.0284 6.6617 23.3707 3.99703C20.7129 1.33235 17.4822 1.31657e-05 13.6787 0L17.7824 6.8571L21.8859 13.7142L9.5752 20.5713H17.7824Z" fill="#0088FF"/>
  <path d="M9.57507 6.8571L13.6786 0C9.87504 -5.48569e-07 6.64441 1.33233 3.98663 3.99703C1.32888 6.6617 5.47144e-07 9.90076 0 13.7142C-5.47144e-07 17.5277 1.32888 20.7667 3.98663 23.4314C6.64438 26.0961 9.8751 27.4286 13.6787 27.4286L9.57507 20.5713L5.47149 13.7142L17.7822 6.8571H9.57507Z" fill="#0044EE"/>
  <path d="M13.6785 0L9.57501 6.8571H17.7822L5.47144 13.7142L9.57501 20.5713L21.8858 13.7142L17.7822 6.8571L13.6785 0Z" fill="white"/>
  <path d="M9.5752 20.5713L13.6788 27.4285L17.7824 20.5713H9.5752Z" fill="white"/>
</svg>